<svg width="242" height="76" viewBox="0 0 242 76" fill="none" xmlns="http://www.w3.org/2000/svg">
<path d="M19.6049 29.6453C19.5777 29.7206 19.5781 29.8041 19.6062 29.8959C19.6342 29.9877 19.6812 30.0319 19.7471 30.0285C19.7446 30.1297 19.7425 30.3143 19.7408 30.5825C19.7391 30.8507 19.7345 31.1366 19.7269 31.4401C19.8494 32.0049 19.8739 32.742 19.8005 33.6511C19.7377 34.5403 19.6411 35.2642 19.5107 35.8227C19.4342 35.8461 19.3777 35.8801 19.3411 35.9248C19.2999 35.9541 19.3122 35.9671 19.3781 35.9637C19.4015 36.0402 19.3618 36.2113 19.259 36.4769C19.2224 36.5216 19.158 36.6667 19.0658 36.9124C18.9843 37.1381 18.9199 37.2833 18.8727 37.3479C18.8902 37.4597 18.8723 37.5655 18.8192 37.6654C18.7614 37.75 18.7019 37.8016 18.6407 37.8204C18.6407 37.8204 18.6277 37.8327 18.6018 37.8573C18.5865 37.862 18.5859 37.8873 18.5999 37.9332C18.4461 38.4152 18.0613 39.1268 17.4456 40.0679C16.8498 41.0197 16.3039 41.6969 15.8079 42.0995C15.6877 42.2533 15.5345 42.4089 15.3483 42.5662C15.1775 42.7188 15.0585 42.8221 14.9913 42.8761C14.9123 43.0007 14.3666 43.2679 13.3542 43.6778C13.2058 43.7399 13.0422 43.8066 12.8633 43.878C12.6843 43.9495 12.5077 44.0286 12.3335 44.1153C12.2463 44.1587 12.0957 44.2131 11.8815 44.2786C11.3918 44.4282 10.7188 44.5252 9.86232 44.5696C9.6447 44.5692 9.47829 44.5448 9.3631 44.4963C9.2479 44.4479 9.10571 44.3659 8.93653 44.2503C8.78732 44.1453 8.67043 44.0639 8.58583 44.0061C8.29805 43.7762 8.09802 43.4777 7.98576 43.1104C7.90624 42.8503 7.89431 42.6197 7.94996 42.4187C8.01624 42.1976 8.16477 42.0268 8.39555 41.906L8.46441 41.885C8.52561 41.8663 8.65737 41.8594 8.8597 41.8645C8.72405 41.4208 8.65364 40.9989 8.64849 40.599C8.59442 39.9295 8.61122 38.4521 8.69889 36.1666L8.73575 35.302C8.76334 35.0092 8.76667 34.4728 8.74573 33.6928C8.74097 33.0752 8.74684 32.4377 8.76333 31.7801C8.79511 31.1179 8.83352 30.6962 8.87855 30.5152C8.88703 30.3787 8.88148 30.1964 8.8619 29.9681C8.85286 29.1176 8.87656 28.3742 8.93301 27.7379L8.86213 26.9314L8.57458 26.8938C8.4509 26.9818 8.33551 27.0422 8.2284 27.0749C8.1519 27.0983 8.06073 27.1011 7.95489 27.0833C7.83121 27.1713 7.61656 27.1532 7.31094 27.0292C7.02061 26.9004 6.83676 26.7642 6.75938 26.6205C6.71475 26.584 6.67075 26.5222 6.62738 26.435C6.59932 26.3432 6.58061 26.282 6.57125 26.2514C6.55381 26.1396 6.70234 25.9687 7.01684 25.7388C7.32667 25.4935 7.72766 25.2454 8.21983 24.9946C8.712 24.7437 9.19525 24.5458 9.66958 24.4008C9.88379 24.3353 10.0468 24.2938 10.1586 24.2764C10.5505 24.19 11.0529 24.1368 11.6658 24.1168C12.274 24.0814 12.8334 24.0777 13.3438 24.1057C13.9049 24.135 14.5387 24.2926 15.2451 24.5785C15.9669 24.8598 16.6432 25.2387 17.274 25.715C17.9202 26.1868 18.418 26.7205 18.7674 27.3164C18.8741 27.5013 19.0042 27.7627 19.1577 28.1006C19.3112 28.4385 19.4301 28.7451 19.5143 29.0205C19.6125 29.3418 19.6427 29.5501 19.6049 29.6453ZM17.7007 31.7081C17.642 31.0234 17.5284 30.4056 17.36 29.8548C16.8782 28.2788 15.9239 27.1818 14.4969 26.564C14.0914 26.3868 13.4723 26.2498 12.6396 26.153C11.8222 26.0516 11.3647 26.0325 11.2669 26.0959C11.1951 26.1345 11.1271 26.6238 11.0631 27.5636C11.0143 28.4987 10.9707 29.5326 10.9322 30.6653L10.7834 33.873C10.7971 34.1365 10.7984 34.3871 10.7874 34.6247C10.7763 34.8623 10.7736 35.0722 10.7791 35.2546C10.7533 35.8815 10.7521 36.2333 10.7755 36.3098C10.5422 37.134 10.5688 38.3974 10.855 40.1001C10.8525 40.2012 10.8759 40.5789 10.9253 41.233C10.9726 41.7707 10.9709 42.0389 10.9203 42.0376L10.9605 42.2512C11.2734 42.2894 11.5552 42.2535 11.8059 42.1434C11.8931 42.1 12.0108 42.0473 12.1591 41.9852C12.3228 41.9184 12.4428 41.8734 12.5193 41.85C12.969 41.6791 13.2939 41.5379 13.4941 41.4265C13.7143 41.3257 13.8822 41.1908 13.9977 41.0216C14.5307 40.3567 14.9546 39.8005 15.2695 39.3529C15.595 38.8853 15.7896 38.5916 15.8534 38.4717C15.8606 38.3858 15.9932 38.2449 16.2511 38.0489L16.6903 37.1869C16.9465 36.6568 17.1165 36.3372 17.2002 36.2279C17.1828 36.1161 17.173 36.002 17.1709 35.8855C17.1793 35.7491 17.1742 35.6503 17.1555 35.5891C17.2783 35.334 17.4087 34.7755 17.5467 33.9135C17.6801 33.0362 17.7314 32.3011 17.7007 31.7081ZM25.5369 37.4187C24.6647 37.6853 23.886 37.6557 23.2008 37.3298C22.5156 37.0039 22.035 36.3895 21.759 35.4868C21.6514 35.1348 21.5551 34.7377 21.4701 34.2952C21.3884 33.9186 21.3794 33.3692 21.4431 32.6471C21.522 31.9202 21.6975 31.1806 21.9694 30.4283C22.2566 29.6712 22.6695 29.0515 23.2079 28.569C23.4565 28.3424 23.6733 28.1757 23.8582 28.069C24.0384 27.947 24.2585 27.8462 24.5187 27.7667C25.146 27.5749 25.686 27.5353 26.1387 27.6479C26.6067 27.7558 26.9616 27.9317 27.2035 28.1757C27.4607 28.4149 27.622 28.6417 27.6875 28.8559L27.7226 28.9707L27.7436 29.0395C27.7998 29.2231 27.7956 29.5925 27.731 30.1476C27.6665 30.7027 27.4626 31.267 27.1192 31.8404C26.7911 32.4092 26.2669 32.8288 25.5465 33.0992C25.1793 33.2115 24.8103 33.2908 24.4397 33.3372C24.0797 33.3636 23.8538 33.3908 23.762 33.4189C23.5325 33.489 23.4128 33.6176 23.4031 33.8046C23.3933 33.9917 23.4493 34.2841 23.5709 34.6819C23.7478 35.0963 23.9537 35.3596 24.1888 35.4718C24.4392 35.5793 24.748 35.5769 25.1152 35.4646C25.2988 35.4085 25.4966 35.2895 25.7087 35.1075C25.9161 34.9103 26.1484 34.6301 26.4055 34.2671C26.5423 34.058 26.6549 33.9064 26.7433 33.8125C26.8317 33.7185 26.9524 33.6482 27.1054 33.6014C27.2431 33.5593 27.4319 33.602 27.6716 33.7295C27.9113 33.8569 28.0646 34.0025 28.1313 34.1661C28.1569 34.3591 28.0728 34.686 27.879 35.1467C27.6852 35.6075 27.388 36.0581 26.9872 36.4985C26.5865 36.9389 26.103 37.2457 25.5369 37.4187ZM24.6492 31.6418C24.94 31.553 25.1295 31.4616 25.2179 31.3676C25.3475 31.2443 25.5186 30.9829 25.7311 30.5833C25.9541 30.1638 26.0546 29.8905 26.0325 29.7634C25.9857 29.6104 25.8795 29.509 25.7137 29.4593C25.5585 29.3896 25.3615 29.3746 25.1227 29.4141L24.8702 29.4913C24.6713 29.5521 24.432 29.8093 24.1524 30.2629C23.8834 30.6964 23.6767 31.1695 23.5322 31.6822C23.5709 31.754 23.7067 31.7878 23.9396 31.7835C24.1679 31.7639 24.4044 31.7167 24.6492 31.6418ZM32.7797 35.581C32.4125 35.6933 32.0065 35.7337 31.5619 35.7023C31.1326 35.6662 30.7475 35.5832 30.4066 35.4532C30.0764 35.3032 29.8832 35.1364 29.827 34.9528C29.7709 34.7692 29.82 34.6287 29.9742 34.5313L30.0609 34.4044C30.0869 34.3798 30.1457 34.3534 30.2375 34.3254C30.2941 34.2913 30.3729 34.2756 30.4741 34.2781C30.5705 34.2654 30.6494 34.2496 30.7106 34.2309C30.8271 34.2288 30.9971 34.2103 31.2206 34.1754L31.8384 34.0618C32.1444 33.9683 32.4182 33.8511 32.6596 33.7104C32.9163 33.565 33.0329 33.4541 33.0095 33.3775C32.9955 33.3316 32.9109 33.2738 32.7558 33.2042C32.6006 33.1345 32.4542 33.1207 32.3165 33.1628C32.2978 33.1016 31.9975 32.9675 31.4155 32.7606C31.0946 32.6412 30.7813 32.5195 30.4757 32.3954C30.1854 32.2667 30.0262 32.1564 29.9981 32.0646L30.0071 32.0116L29.972 31.8969C29.8649 31.9296 29.721 31.8147 29.5403 31.552C29.3596 31.2894 29.2272 31.0203 29.143 30.7449C28.9839 30.2247 29.038 29.5807 29.3053 28.8131C29.5725 28.0454 29.9656 27.3062 30.4845 26.5954C31.0187 25.88 31.5637 25.337 32.1196 24.9662C32.3164 24.789 32.6367 24.6325 33.0804 24.4969C33.3711 24.408 33.5794 24.3778 33.7052 24.4062L33.8748 24.3042C34.0584 24.2481 34.3423 24.3286 34.7266 24.5457C35.1109 24.7629 35.3693 24.9516 35.5019 25.1118C35.6563 25.6167 35.765 26.0269 35.8279 26.3422C35.8909 26.6576 35.8611 26.834 35.7387 26.8714C35.7234 26.8761 35.7028 26.8908 35.6769 26.9154C35.651 26.9401 35.6474 26.983 35.6661 27.0442C35.7316 27.2584 35.6128 27.5541 35.3098 27.9311C35.0221 28.3035 34.7252 28.5365 34.4192 28.63L34.3204 28.6351C34.2239 28.6479 34.0581 28.5982 33.8231 28.486C33.6033 28.3692 33.4677 28.2266 33.4162 28.0583C33.4022 28.0124 33.4566 27.8619 33.5794 27.6068C33.7022 27.3518 33.7967 27.1138 33.863 26.8927C33.9399 26.6517 33.9456 26.4241 33.8801 26.2099C33.8567 26.1334 33.8121 26.0968 33.7462 26.1002C33.691 26.0837 33.5868 26.0988 33.4338 26.1456C32.7092 26.7854 32.2147 27.3297 31.9504 27.7786C31.9326 27.8844 31.9077 27.9673 31.8759 28.0272C31.8593 28.0825 31.8204 28.1195 31.7592 28.1382C31.7545 28.1229 31.7445 28.1176 31.7292 28.1223C31.6986 28.1316 31.6272 28.2538 31.5151 28.4889C31.3982 28.7086 31.2983 28.9567 31.2155 29.233C31.148 29.5046 31.1293 29.7445 31.1595 29.9528L31.1346 30.0357L31.1697 30.1504C31.1638 30.1857 31.1748 30.2493 31.2029 30.3411C31.245 30.4788 31.3506 30.6054 31.5198 30.721C31.6843 30.8213 31.99 30.9454 32.4367 31.0932C33.2843 31.403 33.8702 31.6505 34.1946 31.8357C34.5295 32.001 34.758 32.1738 34.88 32.354C35.1019 32.5873 35.2456 32.8111 35.3111 33.0253C35.4702 33.5455 35.3187 34.0352 34.8567 34.4943C34.4054 34.9334 33.713 35.2957 32.7797 35.581ZM39.2256 22.7939C39.1938 22.8538 39.1549 22.8908 39.109 22.9049C39.0478 22.9236 38.9343 22.9081 38.7685 22.8584C38.6108 22.8898 38.3645 22.8229 38.0295 22.6576C37.7099 22.4877 37.5383 22.3644 37.515 22.2879C37.4435 22.109 37.3793 21.8442 37.3223 21.4935C37.2606 21.1276 37.2489 20.7882 37.2871 20.4753C37.3406 20.1578 37.4721 19.9587 37.6817 19.8779C37.7935 19.8604 37.9505 19.8543 38.1528 19.8593C38.3505 19.8491 38.5781 19.8548 38.8357 19.8764C39.3041 20.369 39.6015 20.8219 39.7278 21.235C39.9149 21.847 39.7475 22.3667 39.2256 22.7939ZM40.0259 32.9643C39.6587 33.0765 39.2789 32.9835 38.8865 32.6852C38.5095 32.3822 38.2038 31.957 37.9695 31.4095C37.8576 30.8247 37.7773 30.3975 37.7283 30.128C37.6674 29.3268 37.6051 28.3839 37.5411 27.2992C37.4879 26.1945 37.4678 25.5816 37.481 25.4604C37.5154 25.2994 37.6167 25.1931 37.785 25.1416C37.9534 25.0902 38.158 25.1029 38.399 25.1798C38.6507 25.2367 38.8804 25.3589 39.0883 25.5463C39.2621 25.6772 39.3818 25.8497 39.4473 26.064C39.5455 26.3853 39.5983 27.1053 39.6057 28.224C39.6254 29.0546 39.6537 29.6398 39.6908 29.9799C39.7278 30.3199 39.8101 30.6712 39.9376 31.0337C40.0869 31.741 40.1707 32.234 40.189 32.5129C40.2074 32.7917 40.153 32.9422 40.0259 32.9643ZM46.2275 35.9873C45.7838 36.1229 45.3027 36.1362 44.7841 36.027C44.2702 35.9332 43.8141 35.7547 43.4158 35.4917C43.0175 35.2286 42.7739 34.9517 42.685 34.661C42.5962 34.3703 42.5919 34.1374 42.6722 33.9622C42.7572 33.8024 42.8915 33.6944 43.0751 33.6383C43.2128 33.5962 43.3745 33.6053 43.5603 33.6656C43.7507 33.7413 43.9781 33.8558 44.2425 34.0092C44.5022 34.1473 44.725 34.2465 44.9107 34.3069C45.1012 34.3825 45.2652 34.3992 45.4029 34.3572C45.9232 34.1981 46.2204 33.7475 46.2947 33.0054C46.369 32.2632 46.3667 31.2434 46.2879 29.9457L46.1883 28.4704L46.185 28.2957C46.1804 28.2804 46.1727 28.2827 46.1621 28.3027C46.1468 28.3074 46.1292 28.3044 46.1092 28.2938C45.9205 28.5522 45.5017 28.9061 44.8527 29.3555C44.2037 29.8049 43.6344 30.1044 43.1448 30.2541C42.854 30.3429 42.5471 30.2695 42.2241 30.0336C41.9163 29.7931 41.6876 29.428 41.5379 28.9384L41.4958 28.8006C41.5077 28.7301 41.5433 28.2173 41.6027 27.2622C41.6621 26.3071 41.773 25.8215 41.9353 25.8053C41.9812 25.7913 42.0243 25.6861 42.0647 25.4897C42.1157 25.2733 42.1318 25.1345 42.1131 25.0733C42.1144 25.0228 42.1728 24.9129 42.2884 24.7437C42.4146 24.5545 42.5119 24.4077 42.5803 24.3031L43.0367 23.6616C43.4332 22.9883 43.8083 22.4638 44.1618 22.088C44.5107 21.6969 44.8565 21.4322 45.1991 21.2941L45.4356 21.2468C45.4815 21.2328 45.568 21.2147 45.6951 21.1926C45.8328 21.1505 46.0887 21.1392 46.4627 21.1587C46.8414 21.1935 47.2886 21.4249 47.8042 21.8528C48.3199 22.2808 48.6538 22.689 48.806 23.0775C48.883 23.4388 48.9117 23.8064 48.8922 24.1805C48.8681 24.5392 48.7948 24.7373 48.6724 24.7747C48.4581 24.8402 48.3139 24.9429 48.2395 25.0827C48.1651 25.2226 48.1195 25.4289 48.1025 25.7018C48.0418 26.1052 47.9925 26.3545 47.9547 26.4497L48.1277 28.3292L48.2554 29.8963C48.2917 30.6716 48.2875 31.3421 48.243 31.9079C48.3349 32.4821 48.285 33.0578 48.0934 33.6351C47.9217 34.2229 47.6585 34.73 47.3036 35.1564C46.9641 35.5781 46.6054 35.8551 46.2275 35.9873ZM43.738 28.0901C44.0288 28.0012 44.4297 27.7531 44.941 27.3459C45.4629 26.9186 45.7623 26.5845 45.8392 26.3435C45.8877 26.2283 45.9722 25.985 46.0929 25.6135C46.2242 25.222 46.4018 24.9 46.6257 24.6475C46.7035 24.5735 46.7619 24.4636 46.801 24.3178C46.8554 24.1673 46.8662 24.0386 46.8335 23.9314L46.8195 23.8855C46.7855 23.829 46.7068 23.7359 46.5835 23.6063C46.4602 23.4767 46.3011 23.3664 46.1059 23.2755C45.9261 23.1799 45.7444 23.1601 45.5608 23.2163C45.4172 23.2936 45.1418 23.679 44.7347 24.3723C44.3429 25.0609 43.991 25.7708 43.6792 26.5019C43.3826 27.2284 43.2694 27.7063 43.3395 27.9359C43.391 28.1042 43.5238 28.1556 43.738 28.0901ZM58.2191 26.6747C57.9896 26.7449 57.7414 26.7539 57.4744 26.7016C57.2075 26.6494 56.9677 26.5219 56.7552 26.3192L56.5703 26.1247C56.2276 25.6606 55.9815 25.1838 55.8318 24.6941L55.5231 23.6843C55.4716 23.516 55.4306 23.4365 55.4 23.4458C55.2776 23.4833 54.9017 24.1419 54.2724 25.4218C53.8249 26.3115 53.4149 27.0224 53.0422 27.5546C52.6801 28.0669 52.4073 28.3511 52.2236 28.4072C52.1624 28.4259 52.0007 28.4168 51.7385 28.3798C51.4715 28.3276 51.2981 28.2802 51.2182 28.2377C51.0783 28.1634 50.9697 28.0544 50.8923 27.9107C50.815 27.767 50.7108 27.481 50.5798 27.0526C50.4301 26.5629 50.3612 25.9817 50.373 25.3089C50.3801 24.6207 50.4618 23.6839 50.6181 22.4984C50.675 22.2468 50.7179 21.9493 50.7467 21.6058C50.8554 20.7026 51.016 20.0512 51.2285 19.6516C51.3509 19.6142 51.4374 19.5961 51.488 19.5974C51.6916 19.5519 51.9491 19.5735 52.2607 19.6623C52.5876 19.7464 52.8237 19.9168 52.9691 20.1735C53.0486 20.4336 53.0899 20.7055 53.0929 20.989C53.0959 21.2725 53.0182 21.6476 52.8597 22.1143C52.7616 22.3953 52.6917 22.9604 52.6502 23.8096C52.6111 23.9554 52.5625 24.1794 52.5043 24.4816C52.4567 24.7639 52.4376 24.9203 52.447 24.9509C52.4669 24.9615 52.5035 24.9169 52.5566 24.817C52.605 24.7018 52.6558 24.5943 52.7089 24.4944L53.1392 23.6852C53.9784 22.1069 54.7224 21.2019 55.3709 20.9702C55.7076 20.8673 56.0597 20.952 56.4274 21.2244C56.7951 21.4968 57.0538 21.8778 57.2035 22.3675C57.2316 22.4593 57.2958 22.7241 57.3962 23.1618L57.7961 24.4701C58.1199 24.2707 58.362 24.1047 58.5222 23.972C58.8626 23.7174 59.2347 23.5116 59.6385 23.3547C59.6874 23.6242 59.6473 24.0129 59.5182 24.5209C59.4043 25.0241 59.2282 25.4879 58.9898 25.9121C58.7514 26.3363 58.4945 26.5905 58.2191 26.6747ZM63.2777 25.6553C62.712 25.6108 62.2435 25.4193 61.8724 25.0811C61.5119 24.7228 61.2288 24.207 61.023 23.5338C60.9762 23.3808 60.9073 23.1007 60.8163 22.6935C60.7942 22.5664 60.7574 22.4187 60.7059 22.2504C60.6264 21.9903 60.5373 21.8084 60.4387 21.7047C60.3354 21.5857 60.1862 21.4807 59.9911 21.3898C59.9312 21.3579 59.7936 21.2912 59.5786 21.1897C59.3635 21.0881 59.2519 20.9967 59.2438 20.9156L59.2228 20.8467C59.19 20.7396 59.1779 20.6178 59.1864 20.4814C59.2055 20.325 59.2333 20.2244 59.2698 20.1798C59.3111 20.1505 59.3888 20.0765 59.5032 19.9579C59.6175 19.8393 59.7176 19.7836 59.8034 19.7908C59.8646 19.7721 59.9681 19.7823 60.1139 19.8214C60.275 19.8558 60.3649 19.9036 60.3836 19.9648C60.5316 20.1203 60.6775 19.7495 60.8215 18.8522C60.9375 18.4654 61.1323 18.0628 61.406 17.6445C61.675 17.211 61.9368 16.8632 62.1913 16.6014C62.2844 16.5227 62.5029 16.389 62.8467 16.2002C63.2011 15.9915 63.4855 15.8544 63.6997 15.7889C63.9445 15.7141 64.258 15.727 64.6401 15.8277C65.0375 15.9237 65.3785 16.0537 65.6628 16.2177C66.0543 16.349 66.3483 16.736 66.5447 17.3786C66.6617 17.7611 66.701 18.1088 66.6628 18.4217C66.6718 18.6699 66.4734 19.1154 66.0675 19.7581C65.6723 20.3808 65.3275 20.8125 65.0329 21.0531C64.7197 21.2325 64.3565 21.3854 63.9434 21.5117C63.5303 21.638 63.2355 21.6863 63.0591 21.6565C62.9333 21.6281 62.8508 21.6867 62.8118 21.8325C62.7833 21.9583 62.8069 22.2272 62.8826 22.639L62.9298 22.8756C62.9813 23.0439 63.0687 23.1928 63.1919 23.3225C63.3552 23.4733 63.4944 23.573 63.6096 23.6214C63.7248 23.6699 63.8742 23.666 64.0578 23.6099L64.2574 23.5238C64.421 23.457 64.5712 23.3191 64.7081 23.11C64.8602 22.8961 65.0266 22.6194 65.2072 22.2798C65.4031 21.9355 65.5169 21.7333 65.5488 21.6734C65.5785 21.497 65.7617 21.3573 66.0983 21.2544C66.236 21.2123 66.419 21.1815 66.6473 21.1619C66.8377 21.2376 66.961 21.3672 67.0171 21.5508C67.0966 21.8109 67.0818 22.2002 66.9726 22.7188C66.9429 22.8952 66.7853 23.2278 66.4997 23.7167C66.2294 24.2008 66.0006 24.5469 65.8132 24.7547C65.4702 25.1105 65.0463 25.3656 64.5413 25.52C64.1588 25.6369 63.7376 25.682 63.2777 25.6553ZM63.3974 19.972C63.7366 19.768 63.9869 19.5743 64.1484 19.3911C64.3205 19.1879 64.4858 18.8529 64.6443 18.3862C64.6544 17.9816 64.6096 17.7527 64.5097 17.6996C64.3898 17.6358 64.2687 17.6227 64.1463 17.6601C63.9932 17.7069 63.8354 17.8472 63.6726 18.081C63.5336 18.1736 63.3638 18.3845 63.1633 18.7135C62.9733 19.0225 62.8216 19.3199 62.7082 19.6055C62.59 19.8759 62.5762 20.0223 62.6668 20.0448C62.6502 20.1001 62.7384 20.1149 62.9314 20.0894C63.1197 20.0486 63.275 20.0094 63.3974 19.972ZM69.7152 23.2356C69.4495 23.1328 69.2321 23.0236 69.0629 22.908C68.8937 22.7924 68.79 22.5899 68.7517 22.3004C68.6385 21.7662 68.5685 21.1267 68.5417 20.382L68.5161 19.8879C68.4357 19.4608 68.4249 18.5773 68.4838 17.2376C68.5534 15.8778 68.668 14.9393 68.8277 14.422C68.934 14.2222 69.1707 14.0662 69.5379 13.9539C69.844 13.8604 70.0769 13.8561 70.2367 13.9411C70.3872 13.9955 70.4952 14.1298 70.5606 14.344C70.6682 14.6959 70.6358 15.3834 70.4634 16.4065L70.3812 16.9587C70.3349 17.1903 70.2992 17.402 70.2742 17.5937C70.2644 17.7807 70.2955 17.8549 70.3673 17.8162C70.4467 17.474 70.7306 16.9523 71.2189 16.2509C71.7225 15.5448 72.0779 15.0931 72.2853 14.8959C72.3737 14.8019 72.4927 14.6986 72.6423 14.586C72.7919 14.4733 72.8927 14.3923 72.9445 14.343C73.1778 14.1211 73.4705 13.9564 73.8224 13.8488C74.0672 13.7739 74.2855 13.7491 74.4771 13.7741C74.6795 13.7792 74.8323 13.8412 74.9356 13.9602C74.9836 14.0626 75.0476 14.1351 75.1275 14.1776C75.2227 14.2154 75.288 14.2373 75.3233 14.2432C75.3692 14.2292 75.4068 14.2428 75.4361 14.284C75.4608 14.31 75.4754 14.3306 75.4801 14.3459C75.5175 14.4683 75.4595 14.6617 75.3061 14.9261C75.1481 15.1752 74.9566 15.3425 74.7318 15.4279C74.5681 15.4947 74.4039 15.5867 74.239 15.7041C74.0741 15.8214 73.9138 15.954 73.7583 16.102L73.2668 16.6287C72.8261 17.0478 72.4619 17.4436 72.1742 17.816C71.8971 18.1684 71.6357 18.5996 71.3901 19.1097C71.337 19.2096 71.255 19.3518 71.1441 19.5363C71.0485 19.7161 70.9752 19.9141 70.9242 20.1305C70.8498 20.2704 70.8216 20.5885 70.8395 21.085C70.8681 21.5614 70.8987 21.8532 70.9315 21.9603C70.9302 22.0109 70.9277 22.1121 70.9239 22.2638C70.9201 22.4155 70.8886 22.559 70.8296 22.6942C70.7433 22.9046 70.666 23.0621 70.5976 23.1666C70.5291 23.2712 70.4414 23.3399 70.3343 23.3726C70.1813 23.4194 69.9749 23.3737 69.7152 23.2356Z" fill="#FF5471"/>
<path d="M179.495 20.1466C179.433 20.1973 179.391 20.2693 179.368 20.3625C179.345 20.4558 179.363 20.5178 179.421 20.5486C179.367 20.6342 179.271 20.7917 179.132 21.0212C178.993 21.2507 178.843 21.4939 178.681 21.7506C178.497 22.2985 178.14 22.9441 177.612 23.6874C177.102 24.419 176.649 24.9913 176.25 25.4042C176.173 25.3851 176.107 25.3854 176.053 25.405C176.002 25.4091 176.006 25.4265 176.064 25.4573C176.045 25.535 175.924 25.6616 175.699 25.8371C175.645 25.8568 175.515 25.9485 175.31 26.1123C175.125 26.2644 174.995 26.3561 174.921 26.3874C174.879 26.4923 174.81 26.5741 174.713 26.6327C174.62 26.6758 174.542 26.6897 174.48 26.6744C174.48 26.6744 174.463 26.6783 174.428 26.6862C174.412 26.6824 174.399 26.7038 174.387 26.7504C174.008 27.0857 173.313 27.4998 172.303 27.9928C171.303 28.5051 170.488 28.8071 169.856 28.8989C169.673 28.9695 169.462 29.0247 169.222 29.0644C168.997 29.108 168.842 29.1358 168.756 29.1478C168.625 29.2143 168.019 29.1643 166.94 28.9978C166.781 28.9752 166.606 28.9487 166.416 28.9184C166.225 28.8882 166.033 28.8656 165.839 28.8509C165.742 28.8435 165.585 28.8131 165.367 28.7596C164.87 28.6374 164.242 28.376 163.484 27.9755C163.297 27.8637 163.167 27.7575 163.093 27.6569C163.018 27.5563 162.938 27.413 162.852 27.2271C162.778 27.0605 162.719 26.9308 162.676 26.8378C162.547 26.4929 162.528 26.1341 162.619 25.7612C162.684 25.497 162.792 25.2929 162.943 25.1487C163.113 24.9928 163.328 24.9221 163.588 24.9366L163.658 24.9537C163.72 24.969 163.837 25.0306 164.008 25.1386C164.119 24.688 164.274 24.2896 164.475 23.9435C164.771 23.3408 165.542 22.0804 166.788 20.1623L167.263 19.4386C167.436 19.2012 167.714 18.7422 168.095 18.0616C168.407 17.5287 168.739 16.9841 169.09 16.4278C169.456 15.8753 169.705 15.5328 169.837 15.4003C169.914 15.2875 170.003 15.128 170.103 14.922C170.53 14.1868 170.932 13.5604 171.306 13.0428L171.658 12.3138L171.43 12.1343C171.279 12.1465 171.149 12.1393 171.04 12.1125C170.963 12.0935 170.883 12.0491 170.801 11.9796C170.65 11.9919 170.475 11.8664 170.276 11.6033C170.092 11.3441 170.004 11.1329 170.011 10.9699C169.992 10.9157 169.985 10.84 169.993 10.743C170.016 10.6498 170.031 10.5876 170.039 10.5565C170.081 10.4516 170.296 10.3809 170.684 10.3444C171.076 10.2924 171.547 10.2847 172.098 10.3213C172.65 10.3579 173.166 10.4354 173.648 10.5538C173.865 10.6073 174.026 10.6551 174.131 10.6974C174.512 10.8239 174.971 11.0355 175.508 11.3322C176.048 11.6134 176.53 11.8967 176.955 12.1821C177.421 12.4946 177.885 12.9545 178.345 13.562C178.821 14.1732 179.208 14.845 179.506 15.5772C179.819 16.3133 179.974 17.0267 179.969 17.7174C179.966 17.9309 179.943 18.222 179.902 18.5908C179.861 18.9597 179.806 19.2839 179.737 19.5636C179.657 19.8899 179.576 20.0842 179.495 20.1466ZM176.803 20.9432C177.103 20.325 177.322 19.7362 177.46 19.1768C177.853 17.5765 177.595 16.1456 176.686 14.8841C176.428 14.5242 175.967 14.0895 175.301 13.5799C174.651 13.0741 174.268 12.8234 174.151 12.8278C174.07 12.8242 173.761 13.2096 173.225 13.984C172.704 14.7622 172.137 15.6279 171.524 16.5811L169.753 19.2599C169.63 19.4932 169.503 19.7091 169.372 19.9076C169.24 20.106 169.131 20.2849 169.042 20.4444C168.699 20.9696 168.517 21.2711 168.498 21.3488C167.876 21.9372 167.252 23.036 166.626 24.6451C166.572 24.7306 166.398 25.067 166.106 25.6541C165.871 26.1402 165.732 26.3697 165.689 26.3427L165.614 26.5467C165.864 26.7397 166.124 26.8532 166.396 26.887C166.493 26.8944 166.621 26.9094 166.78 26.9321C166.955 26.9585 167.081 26.9813 167.159 27.0004C167.633 27.0839 167.984 27.1291 168.213 27.1359C168.454 27.1621 168.667 27.1322 168.853 27.046C169.651 26.7479 170.3 26.4873 170.8 26.2641C171.319 26.0292 171.636 25.8766 171.753 25.8063C171.803 25.7362 171.989 25.6831 172.311 25.6469L173.129 25.1314C173.621 24.8074 173.931 24.6199 174.059 24.5689C174.101 24.464 174.151 24.3609 174.209 24.2598C174.286 24.1469 174.332 24.0595 174.347 23.9973C174.583 23.8411 174.981 23.4282 175.541 22.7585C176.105 22.0733 176.526 21.4682 176.803 20.9432ZM180.609 29.8613C179.723 29.6436 179.07 29.2193 178.648 28.5885C178.226 27.9576 178.128 27.1838 178.354 26.2671C178.441 25.9097 178.562 25.5193 178.716 25.0957C178.838 24.7304 179.112 24.2539 179.537 23.6663C179.977 23.0824 180.506 22.537 181.125 22.0301C181.759 21.527 182.431 21.2061 183.141 21.0674C183.471 21.0002 183.742 20.968 183.956 20.9711C184.173 20.9585 184.414 20.9848 184.678 21.0497C185.315 21.2062 185.799 21.4488 186.13 21.7773C186.477 22.1097 186.691 22.4426 186.774 22.776C186.873 23.1132 186.895 23.3905 186.842 23.6081L186.813 23.7246L186.796 23.7945C186.75 23.981 186.557 24.2961 186.217 24.7398C185.878 25.1836 185.414 25.5638 184.825 25.8804C184.252 26.2009 183.587 26.2928 182.829 26.1561C182.457 26.0645 182.099 25.9437 181.757 25.7937C181.434 25.632 181.226 25.5397 181.133 25.5168C180.9 25.4595 180.731 25.5087 180.627 25.6643C180.523 25.82 180.421 26.0998 180.322 26.5037C180.262 26.9502 180.304 27.2819 180.448 27.4986C180.608 27.7192 180.875 27.8753 181.248 27.9669C181.434 28.0127 181.665 28.0118 181.94 27.9642C182.219 27.901 182.562 27.7793 182.969 27.5992C183.194 27.4896 183.368 27.4171 183.492 27.3817C183.616 27.3463 183.756 27.3477 183.911 27.3859C184.051 27.4202 184.191 27.5536 184.332 27.7858C184.473 28.0181 184.53 28.2216 184.503 28.3963C184.426 28.5752 184.187 28.8128 183.784 29.1094C183.382 29.4059 182.896 29.6407 182.326 29.8137C181.756 29.9867 181.184 30.0025 180.609 29.8613ZM182.805 24.4449C183.1 24.5174 183.31 24.536 183.434 24.5006C183.609 24.4611 183.889 24.3242 184.276 24.0898C184.683 23.8437 184.909 23.6604 184.955 23.5399C184.994 23.3845 184.954 23.2431 184.837 23.1155C184.74 22.9761 184.578 22.8623 184.353 22.774L184.096 22.7109C183.894 22.6613 183.557 22.7597 183.085 23.006C182.632 23.2407 182.212 23.5411 181.825 23.9075C181.822 23.989 181.921 24.0875 182.123 24.2031C182.329 24.3032 182.557 24.3838 182.805 24.4449ZM187.671 30.2871C187.531 30.1208 187.427 29.5352 187.361 28.5304C187.295 27.5256 187.299 26.6039 187.374 25.7654C187.392 25.4239 187.376 24.9505 187.327 24.3453C187.327 24.2134 187.336 24.1086 187.355 24.0309C187.412 23.7978 187.532 23.58 187.713 23.3775C187.899 23.1594 188.081 23.0229 188.259 22.9679C188.333 22.9365 188.472 22.9379 188.678 22.972C188.903 22.9944 189.053 23.0229 189.127 23.0575C189.438 23.2659 189.516 24.29 189.36 26.13C189.304 26.627 189.265 26.988 189.242 27.2132C189.235 27.4422 189.222 27.5955 189.203 27.6732C189.211 27.7741 189.216 27.8905 189.216 28.0224C189.217 28.1544 189.227 28.2474 189.246 28.3017C189.266 28.3559 189.324 28.3538 189.421 28.2952C189.634 28.1663 189.967 27.9185 190.419 27.552C190.644 27.3764 190.988 27.0821 191.452 26.6689L192.351 25.926C192.599 25.7233 192.914 25.5125 193.297 25.2936C193.681 25.0748 193.964 24.9631 194.146 24.9585C194.371 24.9808 194.531 25.0695 194.624 25.2243C194.737 25.3674 194.769 25.54 194.72 25.742C194.647 26.0372 194.444 26.3252 194.112 26.6059C193.988 26.7073 193.845 26.8534 193.683 27.0442C193.54 27.2233 193.449 27.3245 193.41 27.348C193.155 27.6478 192.719 28.0512 192.1 28.5581C191.496 29.0689 191.098 29.3828 190.904 29.5C190.866 29.5235 190.707 29.5998 190.428 29.7289C190.165 29.8619 189.907 30.0376 189.656 30.2559C189.06 30.6036 188.552 30.726 188.132 30.6229C187.93 30.5732 187.777 30.4613 187.671 30.2871ZM195.493 33.9642C193.722 33.5288 193.084 32.3012 193.581 30.2813C193.76 29.5511 194.141 28.7715 194.724 27.9426C195.326 27.102 195.988 26.3834 196.712 25.7868C197.454 25.1784 198.128 24.8168 198.733 24.7018C199.067 24.619 199.427 24.6254 199.816 24.7208C200.515 24.8927 201.083 25.197 201.519 25.6337C201.975 26.0588 202.1 26.6908 201.893 27.5299C201.775 28.0115 201.482 28.4997 201.015 28.9944C200.547 29.4891 200.015 29.8773 199.418 30.1591C198.841 30.4292 198.32 30.5069 197.854 30.3924C197.154 30.2205 196.619 29.8501 196.248 29.2812C195.854 29.7445 195.598 30.217 195.48 30.6987C195.384 31.0871 195.356 31.4016 195.396 31.642C195.44 31.8669 195.633 32.0214 195.974 32.1054C196.301 32.1856 196.576 32.2039 196.801 32.1603C197.026 32.1167 197.239 32.0538 197.441 31.9715C197.642 31.8892 197.797 31.8284 197.906 31.7892L198.01 31.7655L197.987 31.7598C198.305 31.6731 198.536 31.6062 198.679 31.5591C198.842 31.5002 198.973 31.4667 199.074 31.4586C199.307 31.5158 199.508 31.6392 199.675 31.8287C199.843 32.0182 199.902 32.2139 199.852 32.4159C199.814 32.5713 199.611 32.7933 199.244 33.0819C198.88 33.355 198.533 33.5252 198.204 33.5925L197.89 33.6636L197.913 33.6693C197.727 33.8214 197.565 33.8802 197.425 33.8459L197.238 33.8C197.146 33.9091 196.905 33.9818 196.518 34.0183C196.145 34.0586 195.804 34.0405 195.493 33.9642ZM198.085 28.6452C198.52 28.7521 198.923 28.6535 199.295 28.3493C199.682 28.049 199.921 27.7123 200.013 27.3394C200.055 27.1685 200.046 27.0017 199.987 26.8389C199.944 26.68 199.852 26.5834 199.713 26.549C199.448 26.4841 199.123 26.5358 198.735 26.7042C198.348 26.8726 197.98 27.1283 197.632 27.4712L197.209 27.8861C197.279 27.8703 197.329 27.8662 197.36 27.8739C197.485 27.9044 197.565 27.9817 197.6 28.1058C197.635 28.2298 197.682 28.3402 197.741 28.437C197.8 28.5338 197.914 28.6032 198.085 28.6452ZM201.769 34.4688C201.594 34.3104 201.442 34.1247 201.313 33.9118C201.204 33.6872 201.168 33.4971 201.206 33.3418C201.26 33.1242 201.352 32.8503 201.482 32.5199C201.628 32.1934 201.775 31.8998 201.921 31.6392C202.063 31.2622 202.186 30.9629 202.29 30.7413C202.413 30.508 202.574 30.292 202.771 30.0933C202.89 29.8755 203.085 29.5526 203.355 29.1247C203.964 28.1211 204.403 27.3393 204.673 26.7795C204.881 26.4682 205.064 26.1919 205.222 25.9507C205.38 25.7095 205.525 25.4896 205.656 25.2912C205.602 25.3768 205.926 24.8963 206.628 23.8496C206.844 23.5072 207 23.2408 207.097 23.0502C207.439 22.3931 207.763 21.9125 208.069 21.6086C208.216 21.48 208.326 21.367 208.399 21.2697C208.488 21.1762 208.564 21.1041 208.625 21.0534C208.656 20.9951 208.747 20.9598 208.899 20.9475C209.065 20.9391 209.226 20.954 209.382 20.9922C209.553 21.0342 209.662 21.0939 209.709 21.1713C209.794 21.1594 209.893 21.3239 210.007 21.6649C210.141 21.9942 210.184 22.2191 210.138 22.3396C210.088 22.5416 209.988 22.7147 209.838 22.8589C209.76 22.9058 209.662 23.0051 209.542 23.1569C209.426 23.2932 209.324 23.4081 209.235 23.5016C209.177 23.6027 209.077 23.7758 208.934 24.0208C208.811 24.2542 208.697 24.4487 208.593 24.6043C208.469 24.7716 208.348 24.9312 208.228 25.0831C208.128 25.2232 208.039 25.3496 207.962 25.4625C207.85 25.6492 207.667 25.9254 207.412 26.2912C207.065 26.766 206.816 27.1415 206.666 27.4176C206.612 27.5032 206.51 27.6841 206.359 27.9602C205.951 28.6836 205.602 29.1992 205.312 29.5069C205.138 29.6784 204.978 29.9273 204.832 30.2539C204.701 30.5843 204.619 30.7864 204.584 30.8603C204.179 31.5022 203.961 31.8853 203.931 32.0096C203.865 32.1418 203.744 32.4003 203.567 32.7852C203.352 33.2595 203.171 33.5939 203.024 33.7886C202.936 34.014 202.787 34.2164 202.578 34.3957C202.385 34.5789 202.195 34.6475 202.009 34.6017C201.931 34.5826 201.851 34.5383 201.769 34.4688ZM207.401 36.6684C207.211 36.6381 207.059 36.5844 206.946 36.5072C206.845 36.4494 206.703 36.3239 206.52 36.1306C206.243 35.7824 206.036 35.3855 205.898 34.9398C205.776 34.4979 205.755 34.1467 205.836 33.8864C205.863 33.8436 205.887 33.7756 205.91 33.6824C205.933 33.5892 205.943 33.5173 205.939 33.4669C205.938 33.4009 205.94 33.3602 205.944 33.3446C205.893 33.2828 205.862 33.2421 205.85 33.2228C205.858 33.1917 205.873 33.1625 205.897 33.1353C205.935 33.1118 205.966 33.0865 205.989 33.0592C206.055 33.059 206.094 33.0355 206.106 32.9889C206.117 32.9423 206.115 32.8841 206.099 32.8143C206.083 32.6786 206.175 32.4046 206.375 31.9925C206.595 31.5686 206.838 31.1835 207.104 30.837C207.301 30.5724 207.589 30.2394 207.967 29.8382C208.362 29.4408 208.706 29.1465 209 28.9552C209.499 28.6 209.9 28.3443 210.202 28.1878C210.519 28.0352 210.857 27.9369 211.213 27.8928C211.504 27.8489 211.79 27.8614 212.069 27.9301C212.442 28.0217 212.742 28.2107 212.968 28.497C213.792 28.9632 214.21 29.5767 214.221 30.3372C214.234 30.6864 214.191 31.063 214.092 31.467C213.878 32.3371 213.371 33.2258 212.571 34.1332C212.131 34.6511 211.715 35.0679 211.325 35.3838C210.953 35.688 210.524 35.9613 210.036 36.2039C209.699 36.3682 209.272 36.4941 208.757 36.5815C208.26 36.6572 207.808 36.6862 207.401 36.6684ZM210.293 33.6475C210.568 33.4019 210.8 33.1623 210.989 32.9287C211.178 32.6951 211.375 32.3645 211.579 31.9368C211.71 31.6724 211.81 31.4004 211.878 31.1207C212 30.6235 211.997 30.3344 211.869 30.2534C211.772 30.1801 211.669 30.1301 211.56 30.1033C211.234 30.0231 210.84 30.1489 210.38 30.4806C209.927 30.7812 209.569 31.0969 209.307 31.4278C209.044 31.7587 208.703 32.3092 208.283 33.0792C208.16 33.3125 208.067 33.5535 208.006 33.8021C207.945 34.0507 207.934 34.2622 207.974 34.4367C208.017 34.5956 208.117 34.6942 208.272 34.7324C208.707 34.8393 209.381 34.4777 210.293 33.6475ZM211.218 43.3898C211.047 43.2818 210.821 42.9955 210.54 42.531C210.27 42.0858 210.152 41.7933 210.187 41.6534C210.244 41.4203 210.589 40.6894 211.22 39.4606C211.848 38.2474 212.408 37.2731 212.902 36.5377C212.933 36.4793 213.097 36.2478 213.394 35.843C213.691 35.4383 214.004 34.9384 214.331 34.3433C214.566 33.9233 215.108 33.1256 215.957 31.9503L217.046 30.4383C217.258 30.1115 217.501 29.7594 217.775 29.3818C218.049 29.0043 218.213 28.7728 218.267 28.6872C218.375 28.516 218.761 28.4214 219.424 28.4032C219.459 28.3953 219.515 28.4009 219.593 28.42C219.811 28.4734 219.967 28.6436 220.061 28.9304C220.085 29.035 220.081 29.1495 220.051 29.2738C219.978 29.569 219.809 29.8899 219.542 30.2363L219.264 30.6623L220.149 30.6821C221.222 31.0116 221.816 31.2071 221.933 31.2687C222.271 31.3683 222.496 31.4896 222.609 31.6327C222.738 31.7797 222.844 31.9869 222.926 32.2543C223.141 32.5872 223.239 32.8584 223.221 33.0681C223.221 33.134 223.204 33.2369 223.169 33.3768C223.036 33.9206 222.671 34.4983 222.076 35.1099C221.481 35.7216 220.922 36.1196 220.399 36.3041C220.228 36.3281 220.081 36.3577 219.957 36.3932C219.833 36.4286 219.753 36.4502 219.718 36.4581C219.668 36.5282 219.465 36.6183 219.108 36.7283C218.752 36.8384 218.35 36.9293 217.904 37.0009C217.474 37.0763 217.115 37.0952 216.828 37.0576C216.665 37.0505 216.482 37.0221 216.28 36.9724C216.109 36.9304 215.983 36.8747 215.901 36.8051C215.722 36.7282 215.602 36.6821 215.54 36.6669C215.493 36.6554 215.462 36.6808 215.447 36.7429C215.443 36.7584 215.289 36.9512 214.983 37.321C214.698 37.6792 214.314 38.3016 213.833 39.1883C213.05 40.4293 212.35 41.5672 211.733 42.6019C211.432 43.0882 211.261 43.3508 211.218 43.3898ZM216.51 34.8294C216.511 34.8954 216.596 34.9494 216.767 34.9914C217.016 35.0525 217.359 35.0628 217.797 35.0222C218.236 34.9817 218.645 34.8927 219.025 34.7554C219.404 34.618 219.644 34.4463 219.744 34.2403C219.841 34.1817 219.998 34.0802 220.215 33.9357C220.435 33.7757 220.588 33.6568 220.673 33.5788C220.762 33.4853 220.814 33.4075 220.829 33.3454C220.841 33.2987 220.817 33.227 220.759 33.1303C220.645 32.8552 220.456 32.6852 220.192 32.6203C219.85 32.5363 219.274 32.6007 218.464 32.8134C218.142 32.8496 217.925 32.8951 217.812 32.9499C217.716 33.0085 217.58 33.1565 217.407 33.3939C217.256 33.6041 217.158 33.7364 217.112 33.7909C216.718 34.3202 216.517 34.6664 216.51 34.8294ZM225.287 40.842C224.402 40.6243 223.748 40.2001 223.326 39.5692C222.905 38.9383 222.807 38.1645 223.032 37.2478C223.12 36.8905 223.24 36.5 223.394 36.0764C223.517 35.7111 223.79 35.2347 224.215 34.647C224.655 34.0632 225.184 33.5178 225.803 33.0108C226.438 32.5077 227.11 32.1868 227.819 32.0482C228.149 31.9809 228.42 31.9488 228.634 31.9518C228.851 31.9393 229.092 31.9655 229.356 32.0304C229.993 32.187 230.477 32.4295 230.808 32.7581C231.155 33.0904 231.37 33.4233 231.452 33.7567C231.551 34.0939 231.573 34.3713 231.52 34.5888L231.491 34.7053L231.474 34.7753C231.428 34.9617 231.235 35.2768 230.896 35.7205C230.556 36.1643 230.092 36.5445 229.503 36.8612C228.93 37.1817 228.265 37.2736 227.508 37.1369C227.135 37.0452 226.777 36.9244 226.435 36.7744C226.112 36.6127 225.904 36.5204 225.811 36.4975C225.578 36.4402 225.41 36.4894 225.305 36.645C225.201 36.8007 225.1 37.0805 225 37.4845C224.94 37.931 224.982 38.2626 225.126 38.4793C225.286 38.6999 225.553 38.856 225.926 38.9476C226.112 38.9935 226.343 38.9926 226.618 38.9449C226.898 38.8817 227.241 38.76 227.647 38.5799C227.872 38.4703 228.046 38.3979 228.17 38.3624C228.294 38.327 228.434 38.3284 228.589 38.3666C228.729 38.401 228.87 38.5343 229.01 38.7666C229.151 38.9988 229.208 39.2023 229.181 39.3771C229.104 39.5559 228.865 39.7936 228.462 40.0901C228.06 40.3866 227.574 40.6214 227.004 40.7944C226.434 40.9674 225.862 40.9833 225.287 40.842ZM227.483 35.4256C227.779 35.4982 227.988 35.5167 228.112 35.4813C228.287 35.4418 228.568 35.3049 228.955 35.0705C229.361 34.8244 229.587 34.6411 229.634 34.5206C229.672 34.3653 229.632 34.2238 229.515 34.0962C229.418 33.9569 229.256 33.843 229.031 33.7547L228.775 33.6917C228.573 33.642 228.235 33.7404 227.763 33.9867C227.31 34.2214 226.89 34.5219 226.503 34.8882C226.5 34.9697 226.599 35.0682 226.801 35.1839C227.007 35.2839 227.235 35.3645 227.483 35.4256ZM230.802 41.5301C230.626 41.3057 230.496 41.1006 230.41 40.9146C230.323 40.7287 230.338 40.5016 230.453 40.2334C230.63 39.7166 230.897 39.1315 231.255 38.4781L231.487 38.0406C231.636 37.6326 232.08 36.8683 232.816 35.7477C233.572 34.6155 234.151 33.8681 234.554 33.5056C234.747 33.3884 235.03 33.3756 235.403 33.4673C235.714 33.5437 235.916 33.6593 236.01 33.8141C236.111 33.9379 236.135 34.1085 236.082 34.3261C235.994 34.6834 235.614 35.2573 234.942 36.0478L234.589 36.4799C234.43 36.6552 234.291 36.8187 234.172 36.9705C234.067 37.1262 234.056 37.2058 234.138 37.2093C234.381 36.9561 234.892 36.6533 235.671 36.301C236.465 35.9525 237.001 35.7466 237.281 35.6834C237.405 35.648 237.56 35.6202 237.746 35.6C237.932 35.5799 238.06 35.5619 238.13 35.5461C238.444 35.475 238.78 35.4834 239.137 35.5712C239.386 35.6323 239.586 35.7227 239.738 35.8424C239.909 35.9504 240.008 36.0819 240.036 36.237C240.025 36.3496 240.043 36.4446 240.09 36.5221C240.152 36.6033 240.197 36.6555 240.224 36.6787C240.271 36.6901 240.296 36.7211 240.3 36.7715C240.308 36.8064 240.31 36.8316 240.306 36.8472C240.276 36.9715 240.127 37.1079 239.86 37.2564C239.596 37.3894 239.346 37.435 239.109 37.3933C238.935 37.3668 238.746 37.3617 238.545 37.3781C238.343 37.3944 238.137 37.4262 237.928 37.4736L237.236 37.6743C236.643 37.8086 236.127 37.962 235.69 38.1345C235.271 38.2953 234.826 38.5318 234.354 38.8441C234.257 38.9027 234.114 38.9829 233.924 39.0845C233.75 39.19 233.585 39.3226 233.431 39.4823C233.295 39.5643 233.108 39.8231 232.869 40.2587C232.65 40.6826 232.527 40.9489 232.5 41.0577C232.473 41.1004 232.419 41.186 232.338 41.3144C232.257 41.4428 232.156 41.5499 232.036 41.6358C231.855 41.7723 231.707 41.868 231.595 41.9227C231.483 41.9775 231.372 41.9915 231.264 41.9648C231.108 41.9266 230.954 41.7817 230.802 41.5301Z" fill="#FF5471"/>
<path opacity="0.25" d="M192.773 41.2235C181.773 48.2235 194.085 54.4124 186.585 61.4124C183.275 64.5017 170.085 60.4124 175.585 74.4125" stroke="#F7FAFF" stroke-width="2"/>
<path opacity="0.25" d="M58.7951 35.2445C70.6543 40.6355 59.5546 48.2618 67.9857 54.107C71.7066 56.6867 83.9916 50.9916 80.7753 65.3425" stroke="#F7FAFF" stroke-width="2"/>
</svg>
