<svg width="278" height="76" viewBox="0 0 278 76" fill="none" xmlns="http://www.w3.org/2000/svg">
<path d="M19.7455 29.5197C19.7183 29.595 19.7187 29.6785 19.7468 29.7703C19.7749 29.8621 19.8218 29.9063 19.8877 29.9029C19.8852 30.004 19.8831 30.1887 19.8814 30.4569C19.8798 30.7251 19.8751 31.011 19.8675 31.3145C19.99 31.8793 20.0145 32.6164 19.9411 33.5255C19.8784 34.4147 19.7818 35.1386 19.6513 35.6971C19.5748 35.7205 19.5183 35.7545 19.4818 35.7992C19.4405 35.8285 19.4529 35.8415 19.5187 35.838C19.5421 35.9146 19.5024 36.0856 19.3996 36.3513C19.363 36.3959 19.2987 36.5411 19.2065 36.7868C19.1249 37.0125 19.0605 37.1577 19.0133 37.2223C19.0308 37.3341 19.0129 37.4399 18.9598 37.5398C18.902 37.6244 18.8425 37.676 18.7813 37.6947C18.7813 37.6947 18.7684 37.7071 18.7424 37.7317C18.7271 37.7364 18.7265 37.7617 18.7405 37.8076C18.5867 38.2896 18.202 39.0012 17.5862 39.9423C16.9904 40.8941 16.4445 41.5713 15.9486 41.9739C15.8283 42.1277 15.6751 42.2833 15.4889 42.4406C15.3181 42.5932 15.1991 42.6965 15.1319 42.7505C15.0529 42.8751 14.5072 43.1423 13.4948 43.5522C13.3465 43.6142 13.1828 43.681 13.0039 43.7524C12.8249 43.8239 12.6484 43.9029 12.4741 43.9897C12.387 44.033 12.2363 44.0875 12.0221 44.153C11.5325 44.3026 10.8594 44.3996 10.0029 44.444C9.78532 44.4436 9.61891 44.4191 9.50372 44.3707C9.38853 44.3223 9.24634 44.2403 9.07715 44.1247C8.92795 44.0197 8.81105 43.9383 8.72646 43.8805C8.43867 43.6506 8.23865 43.352 8.12639 42.9848C8.04687 42.7247 8.03493 42.4941 8.09059 42.2931C8.15686 42.072 8.30539 41.9011 8.53618 41.7804L8.60503 41.7594C8.66624 41.7406 8.798 41.7338 9.00032 41.7389C8.86467 41.2952 8.79427 40.8733 8.78911 40.4734C8.73504 39.8039 8.75184 38.3265 8.83952 36.041L8.87638 35.1764C8.90396 34.8836 8.90729 34.3472 8.88636 33.5672C8.8816 32.9496 8.88746 32.312 8.90395 31.6545C8.93574 30.9923 8.97415 30.5706 9.01918 30.3896C9.02766 30.2531 9.02211 30.0708 9.00253 29.8425C8.99348 28.992 9.01719 28.2486 9.07363 27.6123L9.00275 26.8058L8.7152 26.7682C8.59153 26.8562 8.47613 26.9166 8.36903 26.9493C8.29252 26.9727 8.20135 26.9755 8.09551 26.9576C7.97184 27.0457 7.75719 27.0276 7.45156 26.9035C7.16124 26.7748 6.97739 26.6386 6.90001 26.4949C6.85537 26.4584 6.81137 26.3966 6.76801 26.3094C6.73994 26.2176 6.72123 26.1564 6.71188 26.1258C6.69443 26.014 6.84296 25.8431 7.15747 25.6131C7.46729 25.3679 7.86829 25.1198 8.36046 24.8689C8.85262 24.6181 9.33587 24.4202 9.8102 24.2752C10.0244 24.2097 10.1874 24.1682 10.2992 24.1508C10.6911 24.0644 11.1935 24.0112 11.8064 23.9912C12.4146 23.9558 12.974 23.9521 13.4845 23.9801C14.0455 24.0094 14.6793 24.167 15.3858 24.4529C16.1075 24.7342 16.7838 25.113 17.4147 25.5894C18.0608 26.0611 18.5586 26.5949 18.9081 27.1908C19.0148 27.3757 19.1449 27.6371 19.2984 27.975C19.4518 28.3128 19.5707 28.6195 19.6549 28.8949C19.7531 29.2162 19.7833 29.4245 19.7455 29.5197ZM17.8414 31.5825C17.7826 30.8978 17.669 30.28 17.5007 29.7292C17.0189 28.1531 16.0645 27.0562 14.6375 26.4384C14.232 26.2612 13.6129 26.1242 12.7802 26.0274C11.9629 25.926 11.5053 25.9069 11.4075 25.9702C11.3357 26.0089 11.2678 26.4982 11.2037 27.438C11.155 28.3731 11.1113 29.407 11.0728 30.5397L10.924 33.7474C10.9377 34.0109 10.939 34.2615 10.928 34.4991C10.917 34.7367 10.9142 34.9466 10.9198 35.129C10.8939 35.7559 10.8927 36.1076 10.9161 36.1841C10.6829 37.0083 10.7094 38.2718 10.9957 39.9745C10.9931 40.0756 11.0166 40.4533 11.066 41.1074C11.1132 41.6451 11.1115 41.9133 11.061 41.912L11.1012 42.1256C11.414 42.1638 11.6958 42.1279 11.9466 42.0178C12.0337 41.9744 12.1514 41.9217 12.2998 41.8596C12.4634 41.7928 12.5835 41.7478 12.66 41.7244C13.1096 41.5534 13.4346 41.4123 13.6347 41.3009C13.8549 41.2001 14.0228 41.0652 14.1384 40.896C14.6713 40.2311 15.0952 39.6749 15.4101 39.2273C15.7356 38.7597 15.9302 38.466 15.994 38.3461C16.0012 38.2602 16.1338 38.1193 16.3918 37.9233L16.8309 37.0613C17.0872 36.5312 17.2571 36.2115 17.3409 36.1023C17.3234 35.9905 17.3136 35.8764 17.3115 35.7599C17.32 35.6235 17.3148 35.5247 17.2961 35.4635C17.4189 35.2084 17.5494 34.6499 17.6874 33.7879C17.8207 32.9106 17.872 32.1754 17.8414 31.5825ZM25.6775 37.2931C24.8054 37.5597 24.0267 37.5301 23.3415 37.2042C22.6562 36.8783 22.1756 36.2639 21.8997 35.3612C21.7921 35.0092 21.6957 34.612 21.6107 34.1696C21.529 33.793 21.52 33.2436 21.5837 32.5215C21.6626 31.7946 21.8381 31.055 22.11 30.3027C22.3972 29.5456 22.8101 28.9259 23.3485 28.4434C23.5972 28.2168 23.8139 28.0501 23.9988 27.9434C24.179 27.8214 24.3992 27.7206 24.6593 27.6411C25.2866 27.4493 25.8266 27.4097 26.2793 27.5223C26.7473 27.6302 27.1022 27.8061 27.3441 28.0501C27.6013 28.2893 27.7626 28.5161 27.8281 28.7303L27.8632 28.845L27.8843 28.9139C27.9404 29.0975 27.9362 29.4669 27.8717 30.022C27.8071 30.5771 27.6032 31.1414 27.2598 31.7148C26.9318 32.2836 26.4075 32.7032 25.6871 32.9736C25.3199 33.0859 24.951 33.1652 24.5803 33.2116C24.2203 33.238 23.9944 33.2652 23.9026 33.2933C23.6731 33.3634 23.5535 33.492 23.5437 33.679C23.534 33.8661 23.5899 34.1585 23.7115 34.5563C23.8884 34.9707 24.0944 35.234 24.3294 35.3462C24.5798 35.4537 24.8886 35.4513 25.2558 35.339C25.4394 35.2829 25.6373 35.1639 25.8493 34.9819C26.0567 34.7847 26.289 34.5045 26.5461 34.1415C26.6829 33.9324 26.7955 33.7808 26.8839 33.6869C26.9723 33.5929 27.093 33.5226 27.246 33.4758C27.3838 33.4337 27.5725 33.4764 27.8122 33.6039C28.052 33.7313 28.2052 33.8769 28.272 34.0405C28.2975 34.2335 28.2134 34.5604 28.0196 35.0211C27.8259 35.4819 27.5286 35.9325 27.1279 36.3729C26.7271 36.8133 26.2436 37.12 25.6775 37.2931ZM24.7899 31.5162C25.0806 31.4274 25.2701 31.3359 25.3585 31.242C25.4882 31.1187 25.6592 30.8573 25.8717 30.4577C26.0948 30.0382 26.1953 29.7649 26.1731 29.6378C26.1264 29.4848 26.0201 29.3834 25.8543 29.3337C25.6992 29.264 25.5021 29.2489 25.2633 29.2885L25.0108 29.3657C24.8119 29.4265 24.5726 29.6837 24.293 30.1372C24.024 30.5708 23.8173 31.0439 23.6729 31.5566C23.7115 31.6284 23.8473 31.6622 24.0803 31.6579C24.3085 31.6383 24.5451 31.5911 24.7899 31.5162ZM32.9203 35.4554C32.5531 35.5677 32.1472 35.6081 31.7026 35.5767C31.2733 35.5406 30.8882 35.4576 30.5473 35.3276C30.217 35.1776 30.0238 35.0108 29.9676 34.8272C29.9115 34.6436 29.9606 34.5031 30.1149 34.4057L30.2016 34.2788C30.2275 34.2542 30.2863 34.2278 30.3782 34.1997C30.4347 34.1657 30.5135 34.15 30.6147 34.1525C30.7112 34.1398 30.79 34.124 30.8512 34.1053C30.9677 34.1032 31.1377 34.0847 31.3613 34.0498L31.9791 33.9362C32.2851 33.8427 32.5588 33.7255 32.8002 33.5848C33.0569 33.4394 33.1736 33.3284 33.1502 33.2519C33.1361 33.206 33.0515 33.1482 32.8964 33.0786C32.7412 33.0089 32.5948 32.9951 32.4571 33.0372C32.4384 32.976 32.1381 32.8419 31.5562 32.635C31.2352 32.5156 30.922 32.3939 30.6163 32.2698C30.326 32.141 30.1668 32.0308 30.1388 31.939L30.1477 31.886L30.1126 31.7713C30.0055 31.804 29.8616 31.6891 29.6809 31.4264C29.5002 31.1638 29.3678 30.8947 29.2836 30.6193C29.1246 30.0991 29.1787 29.4551 29.4459 28.6875C29.7132 27.9198 30.1062 27.1806 30.6251 26.4698C31.1593 25.7544 31.7043 25.2113 32.2603 24.8406C32.457 24.6634 32.7773 24.5069 33.221 24.3712C33.5117 24.2824 33.72 24.2522 33.8458 24.2806L34.0154 24.1786C34.199 24.1225 34.4829 24.203 34.8672 24.4201C35.2515 24.6373 35.5099 24.8259 35.6426 24.9862C35.7969 25.4911 35.9056 25.9013 35.9685 26.2166C36.0315 26.532 36.0018 26.7084 35.8793 26.7458C35.864 26.7505 35.8434 26.7652 35.8175 26.7898C35.7916 26.8145 35.788 26.8574 35.8067 26.9186C35.8722 27.1328 35.7534 27.4285 35.4504 27.8055C35.1627 28.1779 34.8658 28.4109 34.5598 28.5044L34.461 28.5095C34.3645 28.5223 34.1987 28.4726 33.9637 28.3604C33.7439 28.2435 33.6083 28.101 33.5569 27.9327C33.5428 27.8868 33.5972 27.7363 33.72 27.4812C33.8428 27.2262 33.9374 26.9882 34.0036 26.7671C34.0805 26.5261 34.0862 26.2985 34.0207 26.0843C33.9974 26.0078 33.9527 25.9712 33.8868 25.9746C33.8316 25.9581 33.7275 25.9732 33.5744 26.0199C32.8498 26.6597 32.3554 27.2041 32.091 27.653C32.0732 27.7588 32.0484 27.8417 32.0165 27.9016C31.9999 27.9569 31.961 27.9939 31.8998 28.0126C31.8951 27.9973 31.8852 27.992 31.8699 27.9966C31.8393 28.006 31.7679 28.1282 31.6557 28.3633C31.5388 28.583 31.439 28.8311 31.3561 29.1074C31.2886 29.379 31.2699 29.6189 31.3001 29.8272L31.2753 29.9101L31.3103 30.0248C31.3044 30.0601 31.3155 30.1236 31.3435 30.2154C31.3856 30.3532 31.4913 30.4798 31.6605 30.5954C31.825 30.6957 32.1306 30.8198 32.5773 30.9676C33.4249 31.2774 34.0109 31.5249 34.3352 31.7101C34.6702 31.8754 34.8986 32.0482 35.0207 32.2284C35.2426 32.4617 35.3863 32.6855 35.4517 32.8997C35.6108 33.4199 35.4593 33.9096 34.9974 34.3687C34.546 34.8078 33.8537 35.1701 32.9203 35.4554ZM39.3662 22.6683C39.3344 22.7282 39.2955 22.7652 39.2496 22.7792C39.1884 22.798 39.0749 22.7825 38.9091 22.7327C38.7514 22.7642 38.5051 22.6973 38.1702 22.532C37.8505 22.362 37.679 22.2388 37.6556 22.1623C37.5842 21.9834 37.5199 21.7186 37.4629 21.3679C37.4013 21.002 37.3895 20.6626 37.4277 20.3497C37.4812 20.0322 37.6128 19.8331 37.8223 19.7523C37.9341 19.7348 38.0911 19.7286 38.2935 19.7337C38.4911 19.7235 38.7187 19.7292 38.9763 19.7508C39.4448 20.2434 39.7421 20.6962 39.8684 21.1094C40.0555 21.7214 39.8881 22.2411 39.3662 22.6683ZM40.1665 32.8387C39.7993 32.9509 39.4195 32.8579 39.0271 32.5596C38.6501 32.2566 38.3444 31.8313 38.1101 31.2839C37.9983 30.6991 37.9179 30.2719 37.869 30.0024C37.8081 29.2012 37.7457 28.2583 37.6818 27.1736C37.6285 26.0689 37.6084 25.456 37.6216 25.3348C37.656 25.1737 37.7574 25.0675 37.9257 25.016C38.094 24.9646 38.2986 24.9773 38.5396 25.0542C38.7913 25.1111 39.021 25.2333 39.2289 25.4207C39.4028 25.5516 39.5224 25.7241 39.5879 25.9383C39.6862 26.2597 39.739 26.9797 39.7463 28.0984C39.766 28.9289 39.7944 29.5142 39.8314 29.8543C39.8684 30.1943 39.9507 30.5456 40.0783 30.9081C40.2275 31.6154 40.3113 32.1084 40.3297 32.3872C40.348 32.6661 40.2936 32.8165 40.1665 32.8387ZM46.3682 35.8617C45.9244 35.9973 45.4433 36.0106 44.9247 35.9014C44.4108 35.8076 43.9547 35.6291 43.5564 35.366C43.1581 35.103 42.9145 34.8261 42.8257 34.5354C42.7368 34.2447 42.7325 34.0118 42.8128 33.8366C42.8978 33.6768 43.0321 33.5688 43.2157 33.5127C43.3534 33.4706 43.5151 33.4797 43.7009 33.54C43.8913 33.6157 44.1187 33.7302 44.3831 33.8836C44.6429 34.0217 44.8656 34.1209 45.0514 34.1812C45.2418 34.2569 45.4059 34.2736 45.5436 34.2315C46.0638 34.0725 46.3611 33.6219 46.4353 32.8798C46.5096 32.1376 46.5074 31.1177 46.4285 29.8201L46.3289 28.3448L46.3257 28.1701C46.321 28.1548 46.3133 28.1571 46.3027 28.1771C46.2874 28.1818 46.2698 28.1788 46.2498 28.1682C46.0611 28.4266 45.6423 28.7805 44.9933 29.2299C44.3443 29.6793 43.775 29.9788 43.2854 30.1285C42.9947 30.2173 42.6878 30.1438 42.3647 29.908C42.0569 29.6675 41.8282 29.3024 41.6785 28.8127L41.6364 28.675C41.6483 28.6045 41.684 28.0917 41.7433 27.1366C41.8027 26.1815 41.9136 25.6959 42.0759 25.6797C42.1218 25.6656 42.165 25.5604 42.2053 25.3641C42.2563 25.1477 42.2724 25.0089 42.2537 24.9477C42.255 24.8971 42.3134 24.7873 42.429 24.6181C42.5552 24.4289 42.6525 24.2821 42.721 24.1775L43.1774 23.536C43.5738 22.8627 43.9489 22.3381 44.3025 21.9624C44.6514 21.5713 44.9971 21.3066 45.3397 21.1684L45.5762 21.1212C45.6221 21.1072 45.7086 21.0891 45.8357 21.067C45.9734 21.0249 46.2293 21.0136 46.6033 21.0331C46.982 21.0679 47.4292 21.2993 47.9449 21.7272C48.4605 22.1552 48.7944 22.5634 48.9466 22.9519C49.0236 23.3131 49.0524 23.6808 49.0329 24.0548C49.0087 24.4136 48.9354 24.6117 48.813 24.6491C48.5988 24.7146 48.4545 24.8172 48.3801 24.9571C48.3058 25.0969 48.2601 25.3033 48.2431 25.5762C48.1824 25.9796 48.1331 26.2289 48.0953 26.3241L48.2683 28.2036L48.3961 29.7707C48.4323 30.546 48.4281 31.2165 48.3836 31.7823C48.4755 32.3565 48.4256 32.9322 48.234 33.5094C48.0624 34.0973 47.7991 34.6044 47.4443 35.0308C47.1047 35.4525 46.746 35.7294 46.3682 35.8617ZM43.8787 27.9645C44.1694 27.8756 44.5704 27.6275 45.0816 27.2203C45.6035 26.793 45.9029 26.4589 45.9798 26.2179C46.0283 26.1027 46.1128 25.8593 46.2335 25.4878C46.3648 25.0964 46.5424 24.7744 46.7664 24.5219C46.8441 24.4479 46.9026 24.338 46.9417 24.1922C46.996 24.0417 47.0069 23.9129 46.9741 23.8058L46.9601 23.7599C46.9261 23.7034 46.8474 23.6103 46.7242 23.4807C46.6009 23.3511 46.4417 23.2408 46.2466 23.1499C46.0668 23.0543 45.8851 23.0345 45.7014 23.0907C45.5578 23.168 45.2824 23.5534 44.8753 24.2467C44.4835 24.9353 44.1317 25.6452 43.8198 26.3763C43.5232 27.1027 43.41 27.5807 43.4802 27.8102C43.5316 27.9786 43.6644 28.03 43.8787 27.9645ZM58.3597 26.5491C58.1302 26.6193 57.882 26.6282 57.615 26.576C57.3481 26.5238 57.1084 26.3963 56.8958 26.1936L56.7109 25.9991C56.3682 25.535 56.1221 25.0582 55.9724 24.5685L55.6637 23.5587C55.6122 23.3903 55.5712 23.3109 55.5406 23.3202C55.4182 23.3576 55.0423 24.0163 54.413 25.2962C53.9656 26.1859 53.5555 26.8968 53.1828 27.429C52.8207 27.9413 52.5479 28.2254 52.3643 28.2816C52.3031 28.3003 52.1413 28.2912 51.8791 28.2542C51.6121 28.202 51.4387 28.1546 51.3588 28.1121C51.219 28.0378 51.1103 27.9287 51.033 27.7851C50.9556 27.6414 50.8514 27.3554 50.7204 26.927C50.5708 26.4373 50.5018 25.8561 50.5136 25.1832C50.5208 24.4951 50.6025 23.5583 50.7587 22.3728C50.8156 22.1212 50.8585 21.8236 50.8874 21.4802C50.9961 20.577 51.1566 19.9256 51.3691 19.526C51.4915 19.4886 51.578 19.4705 51.6286 19.4718C51.8322 19.4263 52.0898 19.4479 52.4013 19.5367C52.7282 19.6208 52.9643 19.7912 53.1097 20.0479C53.1893 20.308 53.2305 20.5798 53.2335 20.8634C53.2366 21.1469 53.1588 21.522 53.0003 21.9887C52.9022 22.2697 52.8324 22.8348 52.7908 23.684C52.7517 23.8298 52.7031 24.0538 52.6449 24.356C52.5973 24.6383 52.5782 24.7947 52.5876 24.8253C52.6076 24.8359 52.6441 24.7913 52.6972 24.6914C52.7457 24.5762 52.7964 24.4686 52.8496 24.3688L53.2798 23.5596C54.1191 21.9813 54.863 21.0763 55.5116 20.8446C55.8482 20.7416 56.2004 20.8264 56.5681 21.0988C56.9358 21.3712 57.1944 21.7522 57.3441 22.2419C57.3722 22.3337 57.4364 22.5985 57.5368 23.0362L57.9367 24.3445C58.2606 24.1451 58.5026 23.9791 58.6628 23.8464C59.0033 23.5918 59.3754 23.386 59.7791 23.2291C59.828 23.4986 59.7879 23.8873 59.6588 24.3952C59.5449 24.8985 59.3688 25.3623 59.1304 25.7865C58.892 26.2107 58.6351 26.4649 58.3597 26.5491ZM63.4183 25.5297C62.8526 25.4852 62.3842 25.2937 62.013 24.9555C61.6526 24.5972 61.3694 24.0814 61.1636 23.4082C61.1168 23.2552 61.0479 22.9751 60.9569 22.5679C60.9348 22.4408 60.898 22.2931 60.8465 22.1248C60.767 21.8647 60.678 21.6828 60.5793 21.5791C60.476 21.4601 60.3268 21.3551 60.1317 21.2642C60.0718 21.2323 59.9343 21.1656 59.7192 21.0641C59.5041 20.9625 59.3925 20.8711 59.3844 20.7899L59.3634 20.7211C59.3306 20.614 59.3185 20.4922 59.327 20.3558C59.3461 20.1993 59.3739 20.0988 59.4105 20.0542C59.4517 20.0249 59.5295 19.9509 59.6438 19.8323C59.7581 19.7137 59.8582 19.658 59.9441 19.6652C60.0053 19.6465 60.1088 19.6567 60.2546 19.6958C60.4157 19.7302 60.5056 19.778 60.5243 19.8392C60.6722 19.9947 60.8182 19.6238 60.9621 18.7266C61.0781 18.3398 61.2729 17.9372 61.5466 17.5189C61.8156 17.0853 62.0774 16.7376 62.332 16.4758C62.425 16.3971 62.6435 16.2634 62.9873 16.0746C63.3418 15.8659 63.6261 15.7288 63.8403 15.6633C64.0851 15.5884 64.3986 15.6014 64.7807 15.7021C65.1782 15.7981 65.5191 15.9281 65.8035 16.0921C66.1949 16.2234 66.4889 16.6104 66.6854 17.253C66.8023 17.6355 66.8417 17.9832 66.8035 18.296C66.8124 18.5443 66.614 18.9897 66.2082 19.6325C65.8129 20.2552 65.4681 20.6869 65.1736 20.9275C64.8603 21.1069 64.4971 21.2598 64.084 21.3861C63.6709 21.5124 63.3761 21.5606 63.1997 21.5309C63.0739 21.5025 62.9915 21.5611 62.9524 21.7069C62.9239 21.8327 62.9475 22.1016 63.0233 22.5134L63.0705 22.75C63.1219 22.9183 63.2093 23.0672 63.3326 23.1969C63.4958 23.3477 63.635 23.4474 63.7502 23.4958C63.8654 23.5443 64.0148 23.5404 64.1984 23.4843L64.398 23.3982C64.5616 23.3314 64.7118 23.1935 64.8487 22.9843C65.0008 22.7705 65.1672 22.4938 65.3478 22.1542C65.5437 21.8098 65.6576 21.6077 65.6894 21.5478C65.7192 21.3714 65.9023 21.2317 66.239 21.1288C66.3767 21.0867 66.5596 21.0559 66.7879 21.0363C66.9783 21.1119 67.1016 21.2416 67.1577 21.4252C67.2373 21.6853 67.2224 22.0746 67.1133 22.5932C67.0835 22.7696 66.9259 23.1022 66.6403 23.5911C66.3701 24.0752 66.1412 24.4212 65.9538 24.6291C65.6108 24.9849 65.1869 25.24 64.682 25.3944C64.2994 25.5113 63.8782 25.5564 63.4183 25.5297ZM63.5381 19.8464C63.8772 19.6423 64.1275 19.4487 64.289 19.2655C64.4611 19.0623 64.6264 18.7273 64.7849 18.2606C64.7951 17.856 64.7502 17.6271 64.6503 17.574C64.5304 17.5102 64.4093 17.4971 64.2869 17.5345C64.1339 17.5813 63.976 17.7216 63.8132 17.9554C63.6742 18.048 63.5045 18.2589 63.3039 18.5879C63.1139 18.8969 62.9622 19.1943 62.8488 19.4799C62.7307 19.7503 62.7169 19.8967 62.8074 19.9192C62.7908 19.9745 62.879 19.9893 63.072 19.9638C63.2603 19.923 63.4156 19.8838 63.5381 19.8464ZM69.8558 23.11C69.5901 23.0072 69.3727 22.898 69.2035 22.7824C69.0343 22.6668 68.9306 22.4643 68.8923 22.1748C68.7792 21.6406 68.7092 21.0011 68.6823 20.2564L68.6567 19.7623C68.5763 19.3351 68.5656 18.4517 68.6245 17.1119C68.694 15.7522 68.8086 14.8137 68.9684 14.2964C69.0746 14.0966 69.3113 13.9406 69.6786 13.8283C69.9846 13.7348 70.2175 13.7305 70.3773 13.8155C70.5278 13.8699 70.6358 14.0042 70.7013 14.2184C70.8089 14.5703 70.7764 15.2578 70.604 16.2809L70.5218 16.8331C70.4755 17.0647 70.4399 17.2764 70.4148 17.4681C70.4051 17.6551 70.4361 17.7293 70.5079 17.6906C70.5874 17.3484 70.8712 16.8266 71.3595 16.1253C71.8631 15.4192 72.2186 14.9675 72.426 14.7703C72.5144 14.6763 72.6334 14.573 72.783 14.4604C72.9326 14.3477 73.0333 14.2667 73.0851 14.2174C73.3185 13.9955 73.6111 13.8308 73.963 13.7232C74.2078 13.6483 74.4261 13.6234 74.6178 13.6485C74.8201 13.6536 74.9729 13.7156 75.0762 13.8346C75.1243 13.937 75.1882 14.0095 75.2681 14.052C75.3634 14.0898 75.4286 14.1117 75.4639 14.1176C75.5098 14.1036 75.5474 14.1172 75.5767 14.1584C75.6014 14.1843 75.6161 14.205 75.6207 14.2203C75.6582 14.3427 75.6002 14.5361 75.4468 14.8005C75.2887 15.0496 75.0972 15.2168 74.8724 15.3023C74.7088 15.3691 74.5445 15.4611 74.3796 15.5784C74.2147 15.6958 74.0545 15.8284 73.8989 15.9764L73.4074 16.503C72.9667 16.9222 72.6025 17.318 72.3148 17.6903C72.0377 18.0427 71.7764 18.474 71.5308 18.9841C71.4776 19.084 71.3956 19.2262 71.2847 19.4106C71.1891 19.5905 71.1158 19.7885 71.0648 20.0049C70.9905 20.1447 70.9623 20.4629 70.9802 20.9593C71.0087 21.4358 71.0394 21.7276 71.0721 21.8347C71.0708 21.8853 71.0683 21.9865 71.0645 22.1382C71.0607 22.2899 71.0293 22.4334 70.9702 22.5686C70.8839 22.779 70.8066 22.9365 70.7382 23.041C70.6698 23.1456 70.582 23.2143 70.4749 23.247C70.3219 23.2938 70.1155 23.2481 69.8558 23.11Z" fill="#FF5471"/>
<path d="M179.636 20.021C179.574 20.0717 179.531 20.1437 179.509 20.2369C179.486 20.3301 179.503 20.3922 179.562 20.423C179.508 20.5086 179.411 20.6661 179.272 20.8956C179.134 21.1251 178.983 21.3683 178.821 21.625C178.637 22.1729 178.281 22.8185 177.752 23.5618C177.243 24.2934 176.789 24.8657 176.391 25.2786C176.313 25.2595 176.247 25.2598 176.193 25.2794C176.143 25.2835 176.147 25.3009 176.205 25.3317C176.186 25.4094 176.064 25.536 175.84 25.7115C175.786 25.7312 175.656 25.8229 175.451 25.9867C175.265 26.1387 175.136 26.2305 175.062 26.2618C175.02 26.3667 174.95 26.4485 174.853 26.5071C174.761 26.5502 174.683 26.564 174.621 26.5488C174.621 26.5488 174.603 26.5527 174.568 26.5606C174.553 26.5568 174.539 26.5782 174.528 26.6248C174.149 26.9601 173.454 27.3742 172.443 27.8671C171.444 28.3795 170.628 28.6815 169.996 28.7733C169.814 28.8439 169.603 28.8991 169.362 28.9388C169.137 28.9824 168.982 29.0102 168.897 29.0222C168.765 29.0887 168.16 29.0387 167.08 28.8722C166.921 28.8496 166.746 28.8231 166.556 28.7928C166.366 28.7625 166.174 28.74 165.98 28.7253C165.883 28.7179 165.725 28.6875 165.508 28.634C165.011 28.5118 164.383 28.2504 163.624 27.8499C163.438 27.7381 163.307 27.6319 163.233 27.5313C163.159 27.4307 163.079 27.2874 162.993 27.1015C162.918 26.9349 162.86 26.8052 162.817 26.7122C162.687 26.3673 162.668 26.0085 162.76 25.6356C162.825 25.3714 162.933 25.1673 163.084 25.0231C163.254 24.8672 163.469 24.7965 163.729 24.8109L163.799 24.8281C163.861 24.8434 163.978 24.905 164.149 25.013C164.259 24.5624 164.415 24.164 164.615 23.8179C164.912 23.2152 165.683 21.9548 166.929 20.0367L167.403 19.313C167.577 19.0756 167.854 18.6166 168.236 17.936C168.548 17.4031 168.88 16.8585 169.231 16.3022C169.597 15.7497 169.846 15.4072 169.977 15.2747C170.055 15.1619 170.143 15.0024 170.243 14.7963C170.671 14.0612 171.072 13.4348 171.447 12.9172L171.799 12.1882L171.571 12.0087C171.42 12.0209 171.29 12.0137 171.181 11.9869C171.103 11.9678 171.023 11.9235 170.942 11.854C170.79 11.8663 170.615 11.7408 170.416 11.4777C170.233 11.2185 170.145 11.0073 170.152 10.8443C170.132 10.7901 170.126 10.7144 170.133 10.6174C170.156 10.5241 170.172 10.462 170.179 10.4309C170.222 10.326 170.437 10.2553 170.825 10.2188C171.216 10.1668 171.688 10.1591 172.239 10.1957C172.79 10.2323 173.307 10.3098 173.788 10.4282C174.006 10.4817 174.167 10.5295 174.272 10.5718C174.653 10.6983 175.112 10.9099 175.648 11.2066C176.189 11.4877 176.671 11.771 177.095 12.0565C177.562 12.369 178.026 12.8289 178.486 13.4364C178.962 14.0476 179.349 14.7193 179.647 15.4516C179.96 16.1877 180.114 16.9011 180.109 17.5918C180.106 17.8053 180.084 18.0964 180.043 18.4652C180.002 18.8341 179.947 19.1583 179.878 19.438C179.798 19.7643 179.717 19.9586 179.636 20.021ZM176.944 20.8176C177.244 20.1994 177.463 19.6106 177.6 19.0512C177.994 17.4509 177.736 16.0199 176.827 14.7585C176.569 14.3986 176.107 13.9639 175.442 13.4543C174.792 12.9485 174.408 12.6978 174.292 12.7022C174.211 12.6986 173.902 13.084 173.365 13.8584C172.845 14.6366 172.278 15.5023 171.664 16.4555L169.894 19.1343C169.771 19.3676 169.643 19.5835 169.512 19.7819C169.381 19.9804 169.271 20.1593 169.183 20.3188C168.839 20.844 168.658 21.1455 168.639 21.2232C168.017 21.8116 167.392 22.9104 166.766 24.5195C166.712 24.605 166.539 24.9414 166.246 25.5285C166.011 26.0145 165.873 26.2441 165.83 26.2171L165.755 26.4211C166.004 26.6141 166.265 26.7276 166.536 26.7614C166.633 26.7688 166.762 26.7838 166.921 26.8064C167.096 26.8329 167.222 26.8557 167.299 26.8748C167.773 26.9583 168.125 27.0034 168.354 27.0103C168.594 27.0365 168.808 27.0065 168.993 26.9204C169.792 26.6223 170.441 26.3617 170.94 26.1385C171.459 25.9036 171.777 25.751 171.893 25.6807C171.943 25.6106 172.129 25.5575 172.451 25.5213L173.27 25.0058C173.762 24.6817 174.071 24.4942 174.199 24.4433C174.241 24.3383 174.291 24.2353 174.349 24.1342C174.426 24.0213 174.473 23.9338 174.488 23.8717C174.724 23.7155 175.122 23.3026 175.682 22.6329C176.246 21.9477 176.666 21.3426 176.944 20.8176ZM180.75 29.7356C179.864 29.518 179.21 29.0937 178.789 28.4629C178.367 27.832 178.269 27.0582 178.494 26.1415C178.582 25.7841 178.703 25.3936 178.856 24.97C178.979 24.6048 179.253 24.1283 179.677 23.5407C180.117 22.9568 180.647 22.4114 181.266 21.9045C181.9 21.4014 182.572 21.0805 183.282 20.9418C183.611 20.8745 183.883 20.8424 184.096 20.8454C184.313 20.8329 184.554 20.8591 184.818 20.9241C185.455 21.0806 185.939 21.3232 186.271 21.6517C186.617 21.9841 186.832 22.3169 186.915 22.6503C187.013 22.9876 187.036 23.2649 186.982 23.4825L186.954 23.599L186.936 23.6689C186.891 23.8554 186.698 24.1705 186.358 24.6142C186.018 25.0579 185.554 25.4382 184.966 25.7548C184.393 26.0753 183.727 26.1672 182.97 26.0305C182.597 25.9389 182.24 25.8181 181.898 25.6681C181.575 25.5064 181.367 25.4141 181.274 25.3912C181.041 25.3339 180.872 25.3831 180.768 25.5387C180.664 25.6943 180.562 25.9741 180.463 26.3781C180.402 26.8246 180.444 27.1563 180.589 27.373C180.749 27.5936 181.015 27.7497 181.388 27.8413C181.575 27.8871 181.806 27.8862 182.081 27.8386C182.36 27.7754 182.703 27.6537 183.11 27.4736C183.334 27.364 183.509 27.2915 183.633 27.2561C183.757 27.2207 183.896 27.2221 184.052 27.2603C184.192 27.2946 184.332 27.4279 184.473 27.6602C184.613 27.8925 184.67 28.096 184.644 28.2707C184.567 28.4495 184.327 28.6872 183.925 28.9837C183.522 29.2803 183.036 29.515 182.467 29.6881C181.897 29.8611 181.325 29.8769 180.75 29.7356ZM182.946 24.3193C183.241 24.3918 183.451 24.4104 183.575 24.375C183.749 24.3355 184.03 24.1985 184.417 23.9642C184.824 23.7181 185.05 23.5348 185.096 23.4143C185.134 23.2589 185.095 23.1174 184.978 22.9898C184.88 22.8505 184.719 22.7367 184.493 22.6483L184.237 22.5853C184.035 22.5357 183.698 22.634 183.225 22.8804C182.772 23.115 182.352 23.4155 181.966 23.7818C181.962 23.8633 182.062 23.9619 182.264 24.0775C182.47 24.1776 182.697 24.2582 182.946 24.3193ZM187.912 31.8666C187.539 31.7749 187.169 31.6018 186.804 31.3471C186.453 31.0963 186.165 30.8277 185.939 30.5415C185.732 30.2435 185.652 30.0013 185.697 29.8148C185.743 29.6284 185.857 29.5328 186.04 29.5282L186.179 29.4636C186.214 29.4557 186.278 29.4632 186.371 29.4862C186.437 29.4859 186.513 29.5128 186.599 29.5667C186.688 29.6052 186.764 29.6321 186.826 29.6473C186.927 29.7051 187.083 29.7763 187.292 29.8608L187.881 30.0797C188.192 30.1561 188.487 30.1956 188.766 30.1984C189.061 30.205 189.218 30.1694 189.238 30.0918C189.249 30.0451 189.206 29.9522 189.108 29.8129C189.011 29.6736 188.892 29.5867 188.752 29.5523C188.768 29.4902 188.578 29.2212 188.184 28.7455C187.97 28.4786 187.763 28.2136 187.564 27.9505C187.381 27.6912 187.301 27.515 187.323 27.4218L187.358 27.3809L187.387 27.2643C187.278 27.2376 187.213 27.0652 187.193 26.7471C187.172 26.4289 187.196 26.13 187.265 25.8504C187.395 25.3221 187.771 24.7967 188.394 24.2742C189.016 23.7517 189.733 23.3181 190.542 22.9734C191.367 22.6325 192.114 22.4452 192.781 22.4115C193.041 22.36 193.396 22.3897 193.847 22.5004C194.142 22.573 194.336 22.6537 194.43 22.7426L194.628 22.7418C194.814 22.7876 195.017 23.0022 195.235 23.3855C195.454 23.7688 195.58 24.0632 195.612 24.2688C195.486 24.7815 195.369 25.1894 195.261 25.4925C195.154 25.7957 195.038 25.9319 194.914 25.9014C194.898 25.8976 194.873 25.8996 194.838 25.9075C194.803 25.9154 194.778 25.9504 194.763 26.0126C194.709 26.2301 194.456 26.4232 194.003 26.5919C193.565 26.7644 193.19 26.8124 192.88 26.7361L192.792 26.6898C192.703 26.6514 192.586 26.5238 192.441 26.3071C192.313 26.0941 192.269 25.9022 192.311 25.7313C192.323 25.6847 192.446 25.5833 192.682 25.4271C192.919 25.271 193.122 25.1149 193.292 24.959C193.481 24.7914 193.603 24.5988 193.656 24.3813C193.675 24.3036 193.656 24.2494 193.597 24.2186C193.558 24.176 193.461 24.1357 193.306 24.0975C192.356 24.2759 191.652 24.4902 191.195 24.7404C191.126 24.8221 191.062 24.8806 191.004 24.9158C190.961 24.9547 190.909 24.9666 190.847 24.9513C190.851 24.9358 190.845 24.9261 190.829 24.9223C190.798 24.9146 190.674 24.983 190.458 25.1275C190.245 25.2564 190.032 25.4183 189.819 25.6132C189.622 25.8119 189.483 26.0084 189.403 26.2027L189.339 26.2612L189.31 26.3777C189.287 26.405 189.264 26.4652 189.241 26.5585C189.207 26.6983 189.232 26.8612 189.319 27.0471C189.408 27.2175 189.607 27.4806 189.915 27.8364C190.485 28.5365 190.861 29.0492 191.045 29.3744C191.248 29.6879 191.356 29.9533 191.368 30.1706C191.439 30.4846 191.448 30.7504 191.395 30.9679C191.265 31.4962 190.884 31.8392 190.252 31.997C189.64 32.143 188.859 32.0995 187.912 31.8666ZM196.066 33.9448C194.295 33.5095 193.657 32.2819 194.154 30.262C194.333 29.5317 194.714 28.7522 195.297 27.9233C195.899 27.0827 196.562 26.364 197.285 25.7674C198.027 25.1591 198.701 24.7975 199.306 24.6825C199.64 24.5997 200 24.606 200.389 24.7015C201.088 24.8733 201.656 25.1776 202.092 25.6144C202.548 26.0395 202.673 26.6715 202.467 27.5105C202.348 27.9922 202.055 28.4804 201.588 28.9751C201.12 29.4698 200.588 29.858 199.991 30.1398C199.414 30.4099 198.893 30.4876 198.427 30.373C197.727 30.2012 197.192 29.8308 196.821 29.2618C196.427 29.7252 196.171 30.1977 196.053 30.6794C195.957 31.0678 195.93 31.3822 195.969 31.6227C196.013 31.8476 196.206 32.002 196.547 32.0861C196.874 32.1662 197.149 32.1846 197.374 32.141C197.599 32.0974 197.812 32.0344 198.014 31.9522C198.215 31.8699 198.37 31.8091 198.479 31.7699L198.583 31.7462L198.56 31.7404C198.878 31.6538 199.109 31.5869 199.252 31.5398C199.415 31.4809 199.547 31.4474 199.647 31.4392C199.88 31.4965 200.081 31.6199 200.248 31.8094C200.416 31.9989 200.475 32.1946 200.425 32.3966C200.387 32.552 200.184 32.774 199.817 33.0626C199.453 33.3357 199.107 33.5059 198.777 33.5731L198.463 33.6442L198.486 33.65C198.301 33.8021 198.138 33.8609 197.998 33.8265L197.812 33.7807C197.719 33.8897 197.478 33.9625 197.091 33.999C196.718 34.0393 196.377 34.0212 196.066 33.9448ZM198.658 28.6259C199.093 28.7328 199.497 28.6342 199.868 28.33C200.255 28.0296 200.494 27.693 200.586 27.3201C200.628 27.1492 200.619 26.9824 200.56 26.8196C200.517 26.6607 200.425 26.564 200.286 26.5297C200.021 26.4648 199.696 26.5165 199.308 26.6849C198.921 26.8533 198.553 27.109 198.205 27.4518L197.782 27.8668C197.852 27.851 197.902 27.8469 197.933 27.8546C198.058 27.8851 198.138 27.9624 198.173 28.0864C198.208 28.2105 198.255 28.3209 198.314 28.4177C198.373 28.5145 198.487 28.5838 198.658 28.6259ZM211.656 31.5485C211.595 31.7971 211.314 32.4036 210.813 33.368C210.748 33.5002 210.604 33.786 210.38 34.2254C210.176 34.653 210.038 34.9815 209.965 35.2107C209.923 35.3817 209.91 35.568 209.927 35.7697C209.962 35.9597 209.976 36.0703 209.969 36.1013C209.93 36.2567 209.822 36.3949 209.644 36.5159C209.47 36.6214 209.274 36.6474 209.057 36.5939C208.668 36.4985 208.374 36.2532 208.175 35.8582C207.979 35.4476 207.948 34.9704 208.082 34.4266C208.196 33.9605 208.581 33.1324 209.236 31.9423C209.309 31.779 209.363 31.6605 209.398 31.5866C209.452 31.501 209.486 31.4271 209.502 31.365C209.521 31.2873 209.507 31.2427 209.46 31.2313C209.351 31.2045 209.177 31.244 208.937 31.3498C208.7 31.44 208.443 31.5496 208.164 31.6788L207.461 32.025C207.174 32.1193 206.549 32.4187 205.584 32.9231C205.457 32.9741 205.139 33.1267 204.632 33.3809C204.144 33.6235 203.869 33.7371 203.806 33.7218C203.744 33.7066 203.616 33.6256 203.421 33.4789C203.246 33.3205 203.084 33.1407 202.936 32.9395C202.803 32.7421 202.762 32.5424 202.811 32.3404C202.869 32.1074 203.14 31.6057 203.626 30.8354C204.112 30.0651 204.648 29.3237 205.235 28.6112C205.313 28.4984 205.424 28.2787 205.57 27.9521C205.77 27.408 205.957 27.0833 206.131 26.9778C206.263 26.8453 206.414 26.8001 206.585 26.8421C206.895 26.9185 207.145 27.1445 207.332 27.5202C207.536 27.8997 207.592 28.2759 207.5 28.6488C207.435 28.9129 207.271 29.2434 207.009 29.6403C206.766 30.0254 206.604 30.2492 206.523 30.3116C206.577 30.292 206.689 30.2372 206.86 30.1473C207.05 30.0456 207.288 29.9477 207.575 29.8534C208.202 29.5793 208.665 29.4047 208.964 29.3298C209.266 29.2393 209.481 29.1686 209.609 29.1177C209.683 29.0863 209.737 29.0667 209.772 29.0588C209.826 29.0392 209.861 29.0313 209.876 29.0351C209.927 29.031 210.02 29.021 210.156 29.0049C210.311 28.9771 210.427 28.9728 210.505 28.9919C210.738 29.0492 210.958 29.1938 211.164 29.4258C211.39 29.6461 211.482 29.8417 211.44 30.0126C211.429 30.0592 211.462 30.1581 211.54 30.3091C211.622 30.4446 211.681 30.6073 211.717 30.7974C211.757 30.9718 211.736 31.2222 211.656 31.5485ZM214.818 37.6885C214.67 37.6852 214.446 37.5561 214.147 37.3012C213.862 37.0501 213.65 36.8084 213.509 36.5761C213.396 36.301 213.372 35.7928 213.439 35.0513C213.51 34.2943 213.623 33.5973 213.78 32.9602C213.918 32.4669 214.127 31.8839 214.408 31.2115C214.708 30.5273 214.942 30.0083 215.112 29.6545C215.309 29.5218 215.539 29.4219 215.803 29.3549C216.082 29.2917 216.315 29.283 216.501 29.3288C216.672 29.3708 216.776 29.4538 216.811 29.5779C216.935 29.6744 217.006 29.8235 217.022 30.0252C217.058 30.2152 217.049 30.419 216.996 30.6365C216.931 30.9007 216.825 31.1301 216.678 31.3247C216.659 31.4024 216.607 31.5132 216.522 31.6571C216.453 31.8048 216.403 31.9079 216.372 31.9662C216.194 32.1532 216.077 32.3302 216.019 32.4973C215.993 32.6061 215.974 32.7167 215.962 32.8293C215.967 32.9457 215.954 33.0661 215.923 33.1904C215.877 33.3768 215.804 33.5071 215.703 33.5812L215.709 33.5579C215.586 33.7913 215.494 34.0322 215.433 34.2808C215.372 34.5294 215.37 34.7351 215.429 34.8979C215.415 35.0919 215.462 35.2024 215.57 35.2291C215.664 35.252 215.83 35.2106 216.07 35.1049C216.531 34.8391 217.007 34.4783 217.498 34.0223C217.989 33.5663 218.219 33.2685 218.187 33.129C218.175 33.1096 218.175 33.0766 218.187 33.03C218.21 32.9368 218.293 32.8666 218.436 32.8195C218.599 32.7606 218.709 32.7136 218.767 32.6784C218.829 32.6277 218.901 32.5382 218.982 32.4098C219.063 32.2814 219.126 32.19 219.173 32.1355C219.27 32.0769 219.358 31.9834 219.439 31.855L219.433 31.7794C219.452 31.7017 219.528 31.6296 219.659 31.5631C219.795 31.4811 219.876 31.4187 219.903 31.3759C220.007 31.1543 220.152 31.0004 220.338 30.9143C220.539 30.832 220.741 30.8157 220.943 30.8653C221.161 30.9188 221.338 31.0364 221.474 31.2183C221.611 31.4001 221.648 31.6153 221.587 31.8639C221.522 32.1281 221.268 32.5598 220.824 33.1592C220.4 33.7469 219.955 34.2473 219.491 34.6605C219.402 34.754 219.258 34.9078 219.057 35.1221C218.856 35.3363 218.469 35.6696 217.896 36.1221C217.78 36.1924 217.625 36.2861 217.432 36.4033C217.254 36.5243 217.099 36.6181 216.967 36.6846C215.895 37.4262 215.179 37.7608 214.818 37.6885ZM222.244 40.1564C222.054 40.1261 221.903 40.0724 221.79 39.9952C221.689 39.9374 221.547 39.8119 221.363 39.6186C221.086 39.2704 220.879 38.8735 220.742 38.4278C220.62 37.9859 220.599 37.6348 220.679 37.3744C220.706 37.3316 220.731 37.2636 220.754 37.1704C220.777 37.0772 220.786 37.0054 220.782 36.9549C220.782 36.889 220.784 36.8482 220.788 36.8327C220.737 36.7708 220.706 36.7302 220.694 36.7108C220.702 36.6797 220.717 36.6506 220.74 36.6233C220.779 36.5999 220.81 36.5745 220.833 36.5473C220.899 36.547 220.938 36.5236 220.949 36.4769C220.961 36.4303 220.959 36.3721 220.943 36.3023C220.927 36.1666 221.019 35.8926 221.219 35.4805C221.438 35.0566 221.681 34.6715 221.948 34.3251C222.145 34.0604 222.432 33.7275 222.811 33.3262C223.205 32.9289 223.549 32.6345 223.844 32.4432C224.343 32.0881 224.743 31.8323 225.045 31.6759C225.363 31.5232 225.7 31.4249 226.057 31.3808C226.348 31.3369 226.633 31.3494 226.913 31.4181C227.286 31.5098 227.585 31.6987 227.812 31.985C228.636 32.4513 229.054 33.0647 229.065 33.8252C229.078 34.1744 229.035 34.551 228.935 34.955C228.721 35.8251 228.215 36.7138 227.415 37.6212C226.975 38.1391 226.559 38.556 226.168 38.8718C225.797 39.176 225.367 39.4494 224.879 39.6919C224.543 39.8562 224.116 39.9821 223.6 40.0695C223.104 40.1452 222.652 40.1742 222.244 40.1564ZM225.137 37.1355C225.412 36.8899 225.644 36.6503 225.833 36.4168C226.022 36.1832 226.219 35.8525 226.423 35.4249C226.553 35.1604 226.653 34.8884 226.722 34.6087C226.844 34.1115 226.841 33.8224 226.713 33.7415C226.615 33.6681 226.512 33.6181 226.404 33.5913C226.077 33.5111 225.684 33.6369 225.223 33.9686C224.771 34.2692 224.413 34.5849 224.15 34.9158C223.888 35.2467 223.547 35.7972 223.127 36.5672C223.003 36.8006 222.911 37.0415 222.85 37.2901C222.789 37.5387 222.778 37.7503 222.818 37.9247C222.861 38.0837 222.96 38.1822 223.116 38.2204C223.551 38.3273 224.225 37.9657 225.137 37.1355ZM229.372 41.9576C229.321 41.9617 229.257 41.9541 229.18 41.9351C228.853 41.8549 228.627 41.6016 228.501 41.1752C228.376 40.7489 228.383 40.2482 228.525 39.6733C228.601 39.3626 228.706 39.0672 228.841 38.7873C229.123 38.3787 229.289 38.0734 229.338 37.8714C229.457 37.5877 229.743 37.0976 230.194 36.4012C230.664 35.693 230.958 35.2708 231.074 35.1345C231.136 35.1498 231.202 35.1166 231.271 35.0348C231.344 34.9375 231.396 34.8267 231.427 34.7024C231.461 34.5625 231.519 34.4284 231.6 34.3C231.7 34.1599 231.789 34.0664 231.867 34.0196C231.878 33.973 231.915 33.8913 231.976 33.7747C232.053 33.6618 232.098 33.5821 232.109 33.5355C232.117 33.5044 232.146 33.4538 232.196 33.3838C232.265 33.302 232.306 33.2378 232.317 33.1912C232.684 32.7706 233.385 31.7977 234.419 30.2724C235.456 28.7315 235.998 27.8679 236.044 27.6814C236.075 27.5571 236.15 27.4521 236.27 27.3662C236.39 27.2804 236.512 27.2527 236.636 27.2833C236.694 27.2481 236.803 27.2419 236.962 27.2645C237.125 27.2716 237.253 27.2866 237.346 27.3095L237.628 27.7741C237.76 27.9715 237.858 28.1438 237.921 28.291C237.983 28.4382 237.994 28.5973 237.952 28.7682C237.883 29.0479 237.76 29.3142 237.582 29.5671C237.424 29.8083 236.98 30.3747 236.25 31.2663C236.2 31.3363 236.007 31.5855 235.671 32.0137C235.439 32.2862 235.318 32.4458 235.306 32.4924C235.295 32.5391 235.239 32.6324 235.139 32.7725C235.042 32.8971 234.952 33.0313 234.867 33.1752C234.681 33.3933 234.371 33.7865 233.934 34.3548C233.517 34.9114 233.301 35.2207 233.286 35.2829C233.244 35.4538 233.175 35.5685 233.078 35.6271C233.031 35.6157 232.991 35.6469 232.956 35.7208C232.925 35.7791 232.906 35.8238 232.898 35.8549C232.86 36.0102 232.635 36.3914 232.222 36.9985L231.846 37.6228C231.303 38.5602 230.911 39.2467 230.673 39.6822C230.449 40.1216 230.297 40.5045 230.217 40.8308C230.133 41.1726 230.01 41.4389 229.848 41.6297C229.686 41.8205 229.527 41.9298 229.372 41.9576ZM235.544 42.5601C235.343 42.6424 235.141 42.6587 234.939 42.6091C234.706 42.5518 234.525 42.4167 234.396 42.2038C234.162 41.8167 234.041 41.1691 234.033 40.261C234.041 39.3568 234.211 38.2288 234.544 36.8771C234.827 36.0571 235.086 35.1733 235.319 34.2255C235.462 34.1783 235.635 34.1796 235.837 34.2292C236.117 34.298 236.381 34.4289 236.63 34.6219C236.766 34.7378 236.845 34.8888 236.865 35.075C236.904 35.2495 236.886 35.5251 236.81 35.9018C236.749 36.2823 236.616 36.8921 236.41 37.7311L236.226 38.279L235.893 39.4329C235.831 39.6815 235.813 39.8252 235.836 39.8639C235.844 39.8988 235.85 39.9414 235.854 39.9919C235.862 40.0268 235.874 40.0461 235.889 40.0499C235.905 40.0537 236.048 39.9736 236.319 39.8096L236.881 39.231C237.152 38.935 237.339 38.7422 237.444 38.6525C237.54 38.5939 237.726 38.4419 238.001 38.1963L238.488 37.8218C238.554 37.7556 238.658 37.6659 238.801 37.5528C238.964 37.428 239.07 37.3305 239.12 37.2605C239.36 37.0228 239.598 36.8259 239.834 36.6697C240.07 36.5136 240.219 36.4431 240.281 36.4584C240.293 36.4778 240.322 36.4932 240.369 36.5046C240.431 36.5199 240.538 36.5214 240.689 36.5092C240.84 36.4969 240.949 36.4907 241.015 36.4904C241.092 36.4435 241.162 36.4277 241.224 36.443C241.317 36.4659 241.395 36.518 241.458 36.5992C241.582 36.7617 241.633 36.8896 241.611 36.9828C241.576 37.1227 241.397 37.4493 241.073 37.9629C240.749 38.4764 240.527 38.7431 240.407 38.763L240.117 38.9388C240.02 39.1293 239.595 39.552 238.841 40.207C238.087 40.8619 237.404 41.4273 236.793 41.9032C236.588 42.067 236.363 42.2095 236.119 42.3308C235.891 42.4559 235.699 42.5323 235.544 42.5601ZM243.181 45.0796C242.295 44.8619 241.641 44.4376 241.22 43.8068C240.798 43.1759 240.7 42.4021 240.925 41.4854C241.013 41.1281 241.134 40.7376 241.287 40.314C241.41 39.9487 241.684 39.4722 242.108 38.8846C242.548 38.3007 243.078 37.7554 243.697 37.2484C244.331 36.7453 245.003 36.4244 245.713 36.2858C246.042 36.2185 246.314 36.1863 246.527 36.1894C246.745 36.1769 246.985 36.2031 247.249 36.268C247.886 36.4246 248.371 36.6671 248.702 36.9956C249.048 37.328 249.263 37.6609 249.346 37.9943C249.444 38.3315 249.467 38.6089 249.413 38.8264L249.385 38.9429L249.368 39.0128C249.322 39.1993 249.129 39.5144 248.789 39.9581C248.449 40.4019 247.985 40.7821 247.397 41.0988C246.824 41.4192 246.158 41.5111 245.401 41.3745C245.028 41.2828 244.671 41.162 244.329 41.012C244.006 40.8503 243.798 40.758 243.705 40.7351C243.472 40.6778 243.303 40.727 243.199 40.8826C243.095 41.0383 242.993 41.3181 242.894 41.7221C242.833 42.1686 242.876 42.5002 243.02 42.7169C243.18 42.9375 243.446 43.0936 243.819 43.1852C244.006 43.2311 244.237 43.2301 244.512 43.1825C244.791 43.1193 245.134 42.9976 245.541 42.8175C245.765 42.7079 245.94 42.6355 246.064 42.6C246.188 42.5646 246.328 42.566 246.483 42.6042C246.623 42.6386 246.763 42.7719 246.904 43.0042C247.044 43.2364 247.101 43.4399 247.075 43.6147C246.998 43.7935 246.758 44.0312 246.356 44.3277C245.954 44.6242 245.467 44.859 244.898 45.032C244.328 45.205 243.756 45.2209 243.181 45.0796ZM245.377 39.6632C245.672 39.7358 245.882 39.7543 246.006 39.7189C246.18 39.6794 246.461 39.5425 246.848 39.3081C247.255 39.062 247.481 38.8787 247.527 38.7582C247.565 38.6029 247.526 38.4614 247.409 38.3338C247.311 38.1945 247.15 38.0806 246.924 37.9923L246.668 37.9293C246.466 37.8796 246.129 37.978 245.656 38.2243C245.203 38.459 244.784 38.7595 244.397 39.1258C244.393 39.2073 244.493 39.3058 244.695 39.4215C244.901 39.5215 245.128 39.6021 245.377 39.6632ZM254.019 48.0399C253.786 48.0486 253.608 48.0377 253.483 48.0071C253.219 47.9422 252.986 47.786 252.783 47.5384C252.666 47.3449 252.599 47.1472 252.583 46.9455C252.582 46.7476 252.631 46.4466 252.731 46.0427C252.907 45.5918 253.267 44.8317 253.81 43.7624C254.357 42.6775 254.727 42.0105 254.92 41.7614C255.031 41.5747 255.106 41.4036 255.145 41.2483C255.175 41.124 255.149 41.027 255.068 40.9575C254.986 40.888 254.829 40.8246 254.595 40.7673C254.254 40.6833 253.845 40.7722 253.368 41.0341C252.911 41.2843 252.339 41.7367 251.651 42.3914C250.959 43.0616 250.556 43.6298 250.441 44.0959C250.418 44.1892 250.411 44.2862 250.419 44.3871C250.446 44.4762 250.507 44.5323 250.6 44.5552C250.786 44.601 251.048 44.5747 251.385 44.4764C251.49 44.4527 251.818 44.3932 252.368 44.2978C252.539 44.3398 252.579 44.5473 252.487 44.9202C252.461 45.029 252.451 45.1668 252.46 45.3336C252.468 45.5004 252.513 45.6186 252.595 45.6881C252.627 45.7617 252.524 45.8436 252.288 45.9338C252.055 46.0085 251.762 46.0931 251.41 46.1876C251.073 46.286 250.842 46.3529 250.718 46.3883C250.303 46.4016 249.971 46.3777 249.722 46.3166C249.474 46.2555 249.227 46.0877 248.981 45.8131C248.743 45.5735 248.591 45.2559 248.523 44.8603C248.456 44.4647 248.481 44.0261 248.599 43.5445C248.733 43.0007 248.989 42.4292 249.367 41.8301C250.131 40.7987 251.107 39.91 252.296 39.1641C252.392 39.1055 252.635 39.025 253.022 38.9225C253.41 38.8201 253.763 38.7585 254.081 38.7379C254.496 38.7246 254.797 38.7408 254.983 38.7867C255.325 38.8707 255.603 39.0461 255.818 39.313C255.997 39.3899 256.102 39.4322 256.133 39.4398C256.273 39.4742 256.393 39.4543 256.493 39.3802C256.598 39.2905 256.739 39.1192 256.916 38.8663C257.696 37.7068 258.71 36.2591 259.961 34.5234C260.119 34.3481 260.256 34.1594 260.372 33.9571C260.503 33.7587 260.598 33.6419 260.656 33.6068L261.36 33.5574C261.527 33.549 261.702 33.6744 261.885 33.9337C262.072 34.1774 262.172 34.4079 262.185 34.6251C262.143 34.7961 261.991 35.1129 261.729 35.5758C261.47 36.0231 261.145 36.5114 260.751 37.0407C260.55 37.3209 260.392 37.5292 260.276 37.6654C259.415 38.8214 258.806 39.6931 258.447 40.2805L257.764 41.2495C257.482 41.5921 257.303 41.8528 257.226 42.0316C257.006 42.4555 256.785 42.8211 256.561 43.1286C256.341 43.4205 256.217 43.5879 256.19 43.6307C255.735 44.3426 255.402 44.895 255.19 45.2878C254.993 45.6844 254.851 46.0614 254.763 46.4187C254.721 46.5897 254.659 46.978 254.576 47.5837C254.561 47.6458 254.491 47.7276 254.367 47.829C254.259 47.9342 254.143 48.0045 254.019 48.0399ZM259.735 48.9505C259.654 48.9469 259.551 48.9299 259.426 48.8993C259.224 48.8497 259.069 48.7785 258.96 48.6858C258.855 48.5776 258.738 48.417 258.609 48.2041C258.293 47.9453 258.053 47.5815 257.888 47.1126C257.724 46.6437 257.685 46.2966 257.774 46.0711C258.035 45.3444 258.443 44.588 258.999 43.8019C259.558 43.0003 260.196 42.3167 260.911 41.7512C261.646 41.1739 262.359 40.8218 263.049 40.6949C263.356 40.6549 263.625 40.6635 263.859 40.7208C264.34 40.8392 264.621 41.0728 264.7 41.4218C264.755 41.666 264.769 41.8425 264.742 41.9513C264.697 42.1378 264.557 42.2353 264.324 42.244C264.278 42.2326 264.218 42.2425 264.144 42.2738C264.071 42.3052 264.028 42.3441 264.017 42.3908C264.028 42.4101 264.096 42.4351 264.221 42.4656C264.485 42.5305 264.821 42.5719 265.228 42.5897C265.636 42.6074 265.905 42.5831 266.037 42.5166C266.142 42.4929 266.225 42.4887 266.287 42.504L266.602 42.6308C266.847 42.7734 266.956 42.8991 266.929 43.0078C266.91 43.0855 266.909 43.1922 266.925 43.328C266.956 43.4676 266.996 43.5431 267.042 43.5545C267.12 43.5736 267.145 43.6376 267.119 43.7463C267.096 43.8395 267.011 43.9505 266.864 44.0791C266.736 44.1961 266.562 44.3015 266.341 44.3955C266.252 44.4231 266.118 44.4643 265.94 44.5194C265.777 44.5782 265.673 44.6349 265.626 44.6894C265.596 44.7478 265.582 44.8351 265.587 44.9515C265.618 45.0911 265.611 45.2541 265.565 45.4406C265.436 45.9688 265.026 46.5273 264.338 47.1161C263.653 47.6892 262.871 48.1561 261.992 48.5166C261.128 48.8809 260.376 49.0256 259.735 48.9505ZM260.286 47.0099C260.379 47.0329 260.635 46.9969 261.054 46.9021C261.306 46.7498 261.5 46.6656 261.635 46.6495C261.682 46.661 261.73 46.6317 261.78 46.5616C261.85 46.4798 261.952 46.365 262.088 46.217C262.242 46.0572 262.472 45.8584 262.778 45.6205C263.095 45.4019 263.322 45.2186 263.457 45.0706C263.608 44.9264 263.704 44.7689 263.746 44.598C263.761 44.5358 263.772 44.4232 263.779 44.2602C263.775 44.2098 263.731 44.1576 263.645 44.1036C263.579 44.0379 263.511 43.9799 263.441 43.9298C263.363 43.9107 263.279 43.9149 263.19 43.9424C263.105 43.9544 263.047 43.9566 263.016 43.9489C262.938 43.9298 262.862 43.87 262.788 43.7694L262.53 43.2116L262.036 43.5104C261.591 43.78 261.169 44.1872 260.772 44.732C260.39 45.2807 260.115 45.7979 259.946 46.2837C259.877 46.4974 259.87 46.6604 259.924 46.7727C259.999 46.8733 260.119 46.9524 260.286 47.0099ZM266.517 50.1477C266.341 49.9233 266.21 49.7181 266.124 49.5322C266.038 49.3463 266.053 49.1192 266.168 48.851C266.345 48.3342 266.612 47.7491 266.97 47.0957L267.201 46.6582C267.351 46.2502 267.794 45.4859 268.531 44.3653C269.287 43.233 269.866 42.4857 270.268 42.1232C270.462 42.006 270.745 41.9932 271.118 42.0849C271.429 42.1612 271.631 42.2768 271.725 42.4317C271.826 42.5555 271.85 42.7261 271.797 42.9436C271.709 43.301 271.329 43.8749 270.657 44.6653L270.303 45.0975C270.145 45.2728 270.006 45.4363 269.886 45.5881C269.782 45.7438 269.771 45.8234 269.852 45.8269C270.096 45.5737 270.607 45.2709 271.385 44.9186C272.18 44.57 272.716 44.3642 272.995 44.301C273.119 44.2655 273.275 44.2378 273.461 44.2176C273.647 44.1975 273.775 44.1795 273.845 44.1637C274.159 44.0926 274.494 44.101 274.852 44.1888C275.1 44.2499 275.301 44.3403 275.452 44.46C275.624 44.568 275.723 44.6995 275.751 44.8546C275.74 44.9672 275.758 45.0622 275.804 45.1396C275.867 45.2209 275.912 45.2731 275.939 45.2963C275.986 45.3077 276.011 45.3387 276.015 45.3891C276.023 45.424 276.025 45.4492 276.021 45.4647C275.991 45.589 275.842 45.7255 275.575 45.874C275.311 46.007 275.061 46.0526 274.824 46.0108C274.649 45.9844 274.461 45.9793 274.259 45.9956C274.058 46.012 273.852 46.0438 273.643 46.0912L272.951 46.2919C272.358 46.4262 271.842 46.5796 271.404 46.7521C270.986 46.9128 270.541 47.1494 270.068 47.4617C269.972 47.5203 269.828 47.6004 269.639 47.7021C269.464 47.8076 269.3 47.9402 269.145 48.0999C269.01 48.1819 268.823 48.4407 268.584 48.8763C268.364 49.3002 268.241 49.5665 268.215 49.6752C268.188 49.718 268.134 49.8036 268.053 49.932C267.972 50.0604 267.871 50.1675 267.751 50.2533C267.569 50.3899 267.422 50.4855 267.31 50.5403C267.198 50.5951 267.087 50.6091 266.978 50.5824C266.823 50.5442 266.669 50.3993 266.517 50.1477Z" fill="#FF5471"/>
<path opacity="0.25" d="M192.914 41.0979C181.914 48.0979 194.226 54.2868 186.726 61.2868C183.416 64.3761 170.226 60.2868 175.726 74.2869" stroke="#F7FAFF" stroke-width="2"/>
<path opacity="0.25" d="M58.9357 35.1189C70.7949 40.5099 59.6952 48.1362 68.1263 53.9814C71.8473 56.5611 84.1322 50.866 80.9159 65.2169" stroke="#F7FAFF" stroke-width="2"/>
</svg>
