<svg width="55" height="55" viewBox="0 0 55 55" fill="none" xmlns="http://www.w3.org/2000/svg">
<g clip-path="url(#clip0)">
<path d="M52.0966 13.1924L48.5856 48.4492H6.41431L3.58557 13.8747L27.4999 27.264L52.0966 13.1924Z" fill="#F2F2F2"/>
<path d="M50.9057 6.55103L27.5 28.5377L4.09424 6.55103H27.5H50.9057Z" fill="#F2F2F2"/>
<path d="M6.41438 16.7032V48.449H2.59306C1.16145 48.449 0 47.2876 0 45.8559V12.0276L4.18945 12.1418L6.41438 16.7032Z" fill="#D32E2A"/>
<path d="M54.9999 12.0277V45.8562C54.9999 47.2878 53.8385 48.4492 52.4055 48.4492H48.5856V16.7034L50.7009 11.7056L54.9999 12.0277Z" fill="#D32E2A"/>
<path d="M55 9.14408V12.0278L48.5856 16.7035L27.5 32.0721L6.41438 16.7035L0 12.0278V9.14408C0 7.71247 1.16145 6.55103 2.59306 6.55103H4.09428L27.5 23.6106L50.9057 6.55103H52.4055C53.8386 6.55103 55 7.71236 55 9.14408Z" fill="#F14336"/>
<path d="M6.41438 16.7032L0 15.7087V12.0276L6.41438 16.7032Z" fill="#D32E2A"/>
</g>
<defs>
<clipPath id="clip0">
<rect width="55" height="55" fill="white"/>
</clipPath>
</defs>
</svg>
