<svg width="49" height="55" viewBox="0 0 49 55" fill="none" xmlns="http://www.w3.org/2000/svg">
<g clip-path="url(#clip0)">
<rect x="2" y="8.00024" width="44" height="41" fill="white"/>
<path d="M44.6875 3.43774H3.42676C1.53613 3.43774 0 4.99536 0 6.90747V48.093C0 50.0051 1.53613 51.5627 3.42676 51.5627H44.6875C46.5781 51.5627 48.125 50.0051 48.125 48.093V6.90747C48.125 4.99536 46.5781 3.43774 44.6875 3.43774ZM14.5449 44.6877H7.41211V21.7209H14.5557V44.6877H14.5449ZM10.9785 18.5842C8.69043 18.5842 6.84277 16.7258 6.84277 14.4485C6.84277 12.1711 8.69043 10.3127 10.9785 10.3127C13.2559 10.3127 15.1143 12.1711 15.1143 14.4485C15.1143 16.7366 13.2666 18.5842 10.9785 18.5842ZM41.2822 44.6877H34.1494V33.5159C34.1494 30.8518 34.0957 27.425 30.4434 27.425C26.7266 27.425 26.1572 30.3254 26.1572 33.3225V44.6877H19.0244V21.7209H25.8672V24.8577H25.9639C26.9199 23.053 29.251 21.1516 32.7207 21.1516C39.9395 21.1516 41.2822 25.9104 41.2822 32.0979V44.6877Z" fill="#2867B2"/>
</g>
<defs>
<clipPath id="clip0">
<rect width="48.125" height="55" fill="white" transform="translate(0 0.000244141)"/>
</clipPath>
</defs>
</svg>
